<?xml version="1.0" encoding="UTF-8" standalone="no"?>
<!-- Created with Inkscape (http://www.inkscape.org/) -->

<svg
   xmlns:dc="http://purl.org/dc/elements/1.1/"
   xmlns:cc="http://creativecommons.org/ns#"
   xmlns:rdf="http://www.w3.org/1999/02/22-rdf-syntax-ns#"
   xmlns:svg="http://www.w3.org/2000/svg"
   xmlns="http://www.w3.org/2000/svg"
   xmlns:xlink="http://www.w3.org/1999/xlink"
   xmlns:sodipodi="http://sodipodi.sourceforge.net/DTD/sodipodi-0.dtd"
   xmlns:inkscape="http://www.inkscape.org/namespaces/inkscape"
   width="102.25434mm"
   height="87.113541mm"
   viewBox="0 0 102.25434 87.113541"
   version="1.1"
   id="svg8"
   inkscape:version="0.92.3 (2405546, 2018-03-11)"
   sodipodi:docname="bird-main.svg">
  <defs
     id="defs2">
    <linearGradient
       inkscape:collect="always"
       id="linearGradient4739">
      <stop
         style="stop-color:#008033;stop-opacity:1"
         offset="0"
         id="stop4735" />
      <stop
         style="stop-color:#0000ff;stop-opacity:1"
         offset="1"
         id="stop4737" />
    </linearGradient>
    <linearGradient
       id="linearGradient4733"
       inkscape:collect="always">
      <stop
         id="stop4729"
         offset="0"
         style="stop-color:#ff0757;stop-opacity:1" />
      <stop
         id="stop4731"
         offset="1"
         style="stop-color:#ffc600;stop-opacity:1" />
    </linearGradient>
    <linearGradient
       inkscape:collect="always"
       xlink:href="#linearGradient4733"
       id="linearGradient4719"
       gradientUnits="userSpaceOnUse"
       x1="-1258.6973"
       y1="500.87891"
       x2="-1338.7363"
       y2="379.68555" />
    <linearGradient
       inkscape:collect="always"
       xlink:href="#linearGradient4733"
       id="linearGradient4727"
       x1="-1299.1543"
       y1="496.16797"
       x2="-1395.0996"
       y2="381.18164"
       gradientUnits="userSpaceOnUse" />
    <linearGradient
       inkscape:collect="always"
       xlink:href="#linearGradient4739"
       id="linearGradient4741"
       x1="-1513.457"
       y1="447.73828"
       x2="-1114.0331"
       y2="757.7373"
       gradientUnits="userSpaceOnUse" />
    <linearGradient
       inkscape:collect="always"
       xlink:href="#linearGradient4739"
       id="linearGradient4749"
       x1="-1642.5645"
       y1="434.62109"
       x2="-1004.762"
       y2="908.06378"
       gradientUnits="userSpaceOnUse" />
    <linearGradient
       inkscape:collect="always"
       xlink:href="#linearGradient4739"
       id="linearGradient4757"
       x1="-1712.1309"
       y1="464.91718"
       x2="-1025.6663"
       y2="873.91718"
       gradientUnits="userSpaceOnUse" />
    <linearGradient
       inkscape:collect="always"
       xlink:href="#linearGradient4739"
       id="linearGradient4765"
       x1="-435.45554"
       y1="158.70679"
       x2="-318.76389"
       y2="235.17137"
       gradientUnits="userSpaceOnUse" />
  </defs>
  <sodipodi:namedview
     id="base"
     pagecolor="#ffffff"
     bordercolor="#666666"
     borderopacity="1.0"
     inkscape:pageopacity="0.0"
     inkscape:pageshadow="2"
     inkscape:zoom="0.16211183"
     inkscape:cx="-1552.472"
     inkscape:cy="-156.14222"
     inkscape:document-units="px"
     inkscape:current-layer="layer1"
     showgrid="false"
     inkscape:pagecheckerboard="false"
     showborder="true"
     inkscape:snap-smooth-nodes="true"
     inkscape:window-width="1366"
     inkscape:window-height="703"
     inkscape:window-x="0"
     inkscape:window-y="0"
     inkscape:window-maximized="1" />
  <metadata
     id="metadata5">
    <rdf:RDF>
      <cc:Work
         rdf:about="">
        <dc:format>image/svg+xml</dc:format>
        <dc:type
           rdf:resource="http://purl.org/dc/dcmitype/StillImage" />
        <dc:title></dc:title>
      </cc:Work>
    </rdf:RDF>
  </metadata>
  <g
     inkscape:label="Camada 1"
     inkscape:groupmode="layer"
     id="layer1"
     style="display:inline"
     transform="translate(-27.007947,-14.921407)">
    <g
       id="g4819"
       transform="translate(461.88539,-84.8694)">
      <path
         inkscape:connector-curvature="0"
         id="path4662"
         d="m -369.09271,107.11491 a 6.6442192,6.6442192 0 0 0 -0.46974,0.0165 6.6442192,6.6442192 0 0 0 -0.6594,0.0801 6.6442192,6.6442192 0 0 0 -0.64802,0.14573 6.6442192,6.6442192 0 0 0 -0.62994,0.20929 6.6442192,6.6442192 0 0 0 -0.60667,0.2713 6.6442192,6.6442192 0 0 0 -0.57568,0.33021 6.6442192,6.6442192 0 0 0 -0.54054,0.38654 6.6442192,6.6442192 0 0 0 -0.49866,0.43822 6.6442192,6.6442192 0 0 0 -0.4527,0.48576 6.6442192,6.6442192 0 0 0 -0.40204,0.52916 6.6442192,6.6442192 0 0 0 -0.34726,0.56586 6.6442192,6.6442192 0 0 0 -0.28887,0.5979 6.6442192,6.6442192 0 0 0 -0.22789,0.62425 6.6442192,6.6442192 0 0 0 -0.16433,0.64337 6.6442192,6.6442192 0 0 0 -0.0992,0.65681 6.6442192,6.6442192 0 0 0 -0.0331,0.66301 6.6442192,6.6442192 0 0 0 0.0165,0.47025 6.6442192,6.6442192 0 0 0 0.0801,0.65939 6.6442192,6.6442192 0 0 0 0.14573,0.64803 6.6442192,6.6442192 0 0 0 0.20929,0.62993 6.6442192,6.6442192 0 0 0 0.2713,0.60617 6.6442192,6.6442192 0 0 0 0.3302,0.57619 6.6442192,6.6442192 0 0 0 0.38656,0.54053 6.6442192,6.6442192 0 0 0 0.4382,0.49868 6.6442192,6.6442192 0 0 0 0.48628,0.45269 6.6442192,6.6442192 0 0 0 0.52866,0.40204 6.6442192,6.6442192 0 0 0 0.56584,0.34726 6.6442192,6.6442192 0 0 0 0.59844,0.28888 6.6442192,6.6442192 0 0 0 0.62373,0.22737 6.6442192,6.6442192 0 0 0 0.64336,0.16433 6.6442192,6.6442192 0 0 0 0.6568,0.0992 6.6442192,6.6442192 0 0 0 0.66302,0.0336 6.6442192,6.6442192 0 0 0 0.47024,-0.017 6.6442192,6.6442192 0 0 0 0.6594,-0.0796 6.6442192,6.6442192 0 0 0 0.64804,-0.14573 6.6442192,6.6442192 0 0 0 0.62992,-0.20929 6.6442192,6.6442192 0 0 0 0.60669,-0.2713 6.6442192,6.6442192 0 0 0 0.57568,-0.33073 6.6442192,6.6442192 0 0 0 0.54052,-0.38602 6.6442192,6.6442192 0 0 0 0.49868,-0.43822 6.6442192,6.6442192 0 0 0 0.45268,-0.48628 6.6442192,6.6442192 0 0 0 0.40206,-0.52864 6.6442192,6.6442192 0 0 0 0.34727,-0.56638 6.6442192,6.6442192 0 0 0 0.28887,-0.59789 6.6442192,6.6442192 0 0 0 0.22788,-0.62374 6.6442192,6.6442192 0 0 0 0.16434,-0.64337 6.6442192,6.6442192 0 0 0 0.0992,-0.65681 6.6442192,6.6442192 0 0 0 0.0331,-0.66352 6.6442192,6.6442192 0 0 0 -0.0165,-0.46974 6.6442192,6.6442192 0 0 0 -0.0801,-0.65939 6.6442192,6.6442192 0 0 0 -0.14573,-0.64803 6.6442192,6.6442192 0 0 0 -0.20929,-0.63045 6.6442192,6.6442192 0 0 0 -0.2713,-0.60616 6.6442192,6.6442192 0 0 0 -0.33023,-0.57619 6.6442192,6.6442192 0 0 0 -0.38653,-0.54002 6.6442192,6.6442192 0 0 0 -0.43823,-0.49868 6.6442192,6.6442192 0 0 0 -0.48627,-0.45269 6.6442192,6.6442192 0 0 0 -0.52864,-0.40204 6.6442192,6.6442192 0 0 0 -0.56586,-0.34726 6.6442192,6.6442192 0 0 0 -0.59841,-0.28888 6.6442192,6.6442192 0 0 0 -0.62373,-0.22789 6.6442192,6.6442192 0 0 0 -0.64339,-0.16433 6.6442192,6.6442192 0 0 0 -0.6568,-0.0992 6.6442192,6.6442192 0 0 0 -0.66352,-0.0331 z"
         style="opacity:0.98000004;fill:none;stroke:none;stroke-width:0.26458332;stroke-miterlimit:4;stroke-dasharray:none;stroke-dashoffset:0;stroke-opacity:1" />
      <path
         inkscape:connector-curvature="0"
         id="path4646"
         transform="scale(0.26458333)"
         d="m -1642.5645,434.62109 a 202.67167,202.67167 0 0 0 -0.055,0.36133 202.67167,202.67167 0 0 0 -1.0118,20.23242 202.67167,202.67167 0 0 0 0.5079,14.33594 202.67167,202.67167 0 0 0 2.4414,20.11133 202.67167,202.67167 0 0 0 4.4355,19.76758 202.67167,202.67167 0 0 0 6.3887,19.22461 202.67167,202.67167 0 0 0 8.2754,18.49218 202.67167,202.67167 0 0 0 10.08,17.57227 202.67167,202.67167 0 0 0 11.7852,16.47852 202.67167,202.67167 0 0 0 13.3691,15.2207 202.67167,202.67167 0 0 0 14.8243,13.80859 202.67167,202.67167 0 0 0 16.1269,12.25977 202.67167,202.67167 0 0 0 17.2715,10.58984 202.67167,202.67167 0 0 0 0.6875,0.33203 202.67167,202.67167 0 0 0 17.5547,8.48047 202.67167,202.67167 0 0 0 19.0293,6.94531 202.67167,202.67167 0 0 0 19.6289,5.01368 202.67167,202.67167 0 0 0 20.0312,3.02734 202.67167,202.67167 0 0 0 20.2344,1.01172 202.67167,202.67167 0 0 0 14.336,-0.50781 202.67167,202.67167 0 0 0 20.1113,-2.44141 202.67167,202.67167 0 0 0 19.7676,-4.43555 202.67167,202.67167 0 0 0 19.2246,-6.38867 202.67167,202.67167 0 0 0 18.4902,-8.27539 202.67167,202.67167 0 0 0 0.8711,-0.5 202.67167,202.67167 0 0 0 0.9648,-1.03516 202.67167,202.67167 0 0 0 4.3946,-5.77929 202.67167,202.67167 0 0 0 7.8672,-10.34961 202.67167,202.67167 0 0 0 10.5878,-17.26953 202.67167,202.67167 0 0 0 8.8126,-18.24219 202.67167,202.67167 0 0 0 6.9453,-19.03125 202.67167,202.67167 0 0 0 5.0136,-19.62891 202.67167,202.67167 0 0 0 3.0274,-20.03125 202.67167,202.67167 0 0 0 0.3789,-7.59765 126.57468,126.57468 0 0 1 -1.8906,12.51172 126.57468,126.57468 0 0 1 -3.1289,12.25781 126.57468,126.57468 0 0 1 -4.3399,11.88476 126.57468,126.57468 0 0 1 -5.5019,11.39258 126.57468,126.57468 0 0 1 -6.6133,10.78711 126.57468,126.57468 0 0 1 -7.6582,10.07227 126.57468,126.57468 0 0 1 -8.6231,9.25781 126.57468,126.57468 0 0 1 -9.5058,8.34961 126.57468,126.57468 0 0 1 -10.2911,7.35937 126.57468,126.57468 0 0 1 -10.9746,6.29493 126.57468,126.57468 0 0 1 -11.5488,5.16992 126.57468,126.57468 0 0 1 -12.0078,3.98828 126.57468,126.57468 0 0 1 -2.6406,0.59375 126.57468,126.57468 0 0 1 -9.7032,2.17773 126.57468,126.57468 0 0 1 -12.5605,1.52344 126.57468,126.57468 0 0 1 -8.9531,0.31836 126.57468,126.57468 0 0 1 -12.6367,-0.63281 126.57468,126.57468 0 0 1 -12.5098,-1.89063 126.57468,126.57468 0 0 1 -12.2598,-3.13086 126.57468,126.57468 0 0 1 -11.8847,-4.33789 126.57468,126.57468 0 0 1 -11.3926,-5.5039 126.57468,126.57468 0 0 1 -10.7871,-6.61329 126.57468,126.57468 0 0 1 -10.0723,-7.65624 126.57468,126.57468 0 0 1 -5.1348,-4.78321 126.57468,126.57468 0 0 1 -4.121,-3.83984 126.57468,126.57468 0 0 1 -8.3516,-9.50586 126.57468,126.57468 0 0 1 -7.3594,-10.29102 126.57468,126.57468 0 0 1 -6.2949,-10.97656 126.57468,126.57468 0 0 1 -5.168,-11.54687 126.57468,126.57468 0 0 1 -3.9902,-12.00782 126.57468,126.57468 0 0 1 -2.7695,-12.34375 126.57468,126.57468 0 0 1 -1.5254,-12.56054 126.57468,126.57468 0 0 1 -0.3164,-8.95313 126.57468,126.57468 0 0 1 0.4863,-9.72656 202.67167,202.67167 0 0 1 -17.1856,-6.27344 202.67167,202.67167 0 0 1 -18.2421,-8.81055 202.67167,202.67167 0 0 1 -17.2715,-10.58984 202.67167,202.67167 0 0 1 -16.127,-12.25977 202.67167,202.67167 0 0 1 -14.8242,-13.80859 202.67167,202.67167 0 0 1 -6.7188,-7.64844 z"
         style="opacity:0.98000004;fill:url(#linearGradient4757);fill-opacity:1;stroke:none;stroke-width:0.99999994;stroke-miterlimit:4;stroke-dasharray:none;stroke-dashoffset:0;stroke-opacity:1" />
      <path
         inkscape:connector-curvature="0"
         id="path4640"
         d="m -422.73801,180.54712 a 53.623545,53.623545 0 0 0 4.39766,2.1239 53.623545,53.623545 0 0 0 5.03534,1.83813 53.623545,53.623545 0 0 0 5.19348,1.32602 53.623545,53.623545 0 0 0 5.29995,0.80098 53.623545,53.623545 0 0 0 5.35315,0.2682 53.623545,53.623545 0 0 0 3.79307,-0.13436 53.623545,53.623545 0 0 0 5.32111,-0.64595 53.623545,53.623545 0 0 0 5.23018,-1.17409 53.623545,53.623545 0 0 0 5.08651,-1.69034 53.623545,53.623545 0 0 0 4.89273,-2.18953 53.623545,53.623545 0 0 0 4.64931,-2.66702 53.623545,53.623545 0 0 0 4.35994,-3.11764 53.623545,53.623545 0 0 0 4.02714,-3.53777 53.623545,53.623545 0 0 0 3.39825,-3.64784 53.623545,53.623545 0 0 1 -0.23047,0.1323 53.623545,53.623545 0 0 1 -4.8922,2.18953 53.623545,53.623545 0 0 1 -5.08651,1.69033 53.623545,53.623545 0 0 1 -5.23018,1.17357 53.623545,53.623545 0 0 1 -5.32111,0.64596 53.623545,53.623545 0 0 1 -3.79307,0.13436 53.623545,53.623545 0 0 1 -5.35368,-0.26768 53.623545,53.623545 0 0 1 -5.29993,-0.80099 53.623545,53.623545 0 0 1 -5.19348,-1.32653 53.623545,53.623545 0 0 1 -5.03483,-1.83762 53.623545,53.623545 0 0 1 -4.64468,-2.24379 53.623545,53.623545 0 0 1 -0.17984,0.23668 53.623545,53.623545 0 0 1 -3.65353,3.92172 53.623545,53.623545 0 0 1 -4.02714,3.53777 53.623545,53.623545 0 0 1 -4.35994,3.11764 53.623545,53.623545 0 0 1 -3.73723,2.14406 z"
         style="opacity:0.98000004;fill:url(#linearGradient4765);fill-opacity:1;stroke:none;stroke-width:0.26458332;stroke-miterlimit:4;stroke-dasharray:none;stroke-dashoffset:0;stroke-opacity:1" />
      <path
         inkscape:connector-curvature="0"
         id="path4620"
         transform="scale(0.26458333)"
         d="m -1552.1953,494.01172 a 126.57468,126.57468 0 0 0 -0.4863,9.72656 126.57468,126.57468 0 0 0 0.3164,8.95313 126.57468,126.57468 0 0 0 1.5254,12.56054 126.57468,126.57468 0 0 0 2.7695,12.34375 126.57468,126.57468 0 0 0 3.9902,12.00782 126.57468,126.57468 0 0 0 5.168,11.54687 126.57468,126.57468 0 0 0 6.2949,10.97656 126.57468,126.57468 0 0 0 7.3594,10.29102 126.57468,126.57468 0 0 0 8.3516,9.50586 126.57468,126.57468 0 0 0 4.121,3.83984 126.57468,126.57468 0 0 0 5.1348,4.78321 126.57468,126.57468 0 0 0 10.0723,7.65624 126.57468,126.57468 0 0 0 10.7871,6.61329 126.57468,126.57468 0 0 0 11.3926,5.5039 126.57468,126.57468 0 0 0 11.8847,4.33789 126.57468,126.57468 0 0 0 12.2598,3.13086 126.57468,126.57468 0 0 0 12.5098,1.89063 126.57468,126.57468 0 0 0 12.6367,0.63281 126.57468,126.57468 0 0 0 8.9531,-0.31836 126.57468,126.57468 0 0 0 12.5605,-1.52344 126.57468,126.57468 0 0 0 9.7032,-2.17773 126.57468,126.57468 0 0 1 -6.3965,-1.63477 126.57468,126.57468 0 0 1 -11.8867,-4.33789 126.57468,126.57468 0 0 1 -11.3926,-5.5039 126.57468,126.57468 0 0 1 -10.7852,-6.61329 126.57468,126.57468 0 0 1 -10.0722,-7.65624 126.57468,126.57468 0 0 1 -9.2578,-8.62305 126.57468,126.57468 0 0 1 -8.3496,-9.50586 126.57468,126.57468 0 0 1 -7.3594,-10.29102 126.57468,126.57468 0 0 1 -6.2969,-10.97656 126.57468,126.57468 0 0 1 -5.168,-11.54687 126.57468,126.57468 0 0 1 -3.9883,-12.00782 126.57468,126.57468 0 0 1 -2.7714,-12.34375 126.57468,126.57468 0 0 1 -1.5254,-12.56054 126.57468,126.57468 0 0 1 -0.3164,-8.95313 202.67167,202.67167 0 0 1 -20.2344,-1.01367 202.67167,202.67167 0 0 1 -20.0313,-3.02734 202.67167,202.67167 0 0 1 -19.6289,-5.01172 202.67167,202.67167 0 0 1 -1.8437,-0.67383 z"
         style="opacity:0.98000004;fill:url(#linearGradient4749);fill-opacity:1;stroke:none;stroke-width:0.99999994;stroke-miterlimit:4;stroke-dasharray:none;stroke-dashoffset:0;stroke-opacity:1" />
      <path
         inkscape:connector-curvature="0"
         id="path4616"
         transform="scale(0.26458333)"
         d="m -1395.0996,381.18164 a 126.57468,126.57468 0 0 0 -2.6406,0.59375 126.57468,126.57468 0 0 0 -12.0078,3.99023 126.57468,126.57468 0 0 0 -11.5489,5.16797 126.57468,126.57468 0 0 0 -10.9746,6.29493 126.57468,126.57468 0 0 0 -10.291,7.35937 126.57468,126.57468 0 0 0 -9.5059,8.34961 126.57468,126.57468 0 0 0 -8.623,9.25781 126.57468,126.57468 0 0 0 -7.6582,10.07227 126.57468,126.57468 0 0 0 -6.6133,10.78711 126.57468,126.57468 0 0 0 -5.5019,11.39258 126.57468,126.57468 0 0 0 -4.3399,11.88476 126.57468,126.57468 0 0 0 -3.1289,12.25977 126.57468,126.57468 0 0 0 -1.8906,12.50976 126.57468,126.57468 0 0 0 -0.6328,12.63672 126.57468,126.57468 0 0 0 0.3164,8.95313 126.57468,126.57468 0 0 0 1.5254,12.56054 126.57468,126.57468 0 0 0 2.7714,12.34375 126.57468,126.57468 0 0 0 3.9883,12.00782 126.57468,126.57468 0 0 0 5.168,11.54687 126.57468,126.57468 0 0 0 6.2969,10.97656 126.57468,126.57468 0 0 0 7.3594,10.29102 126.57468,126.57468 0 0 0 8.3496,9.50586 126.57468,126.57468 0 0 0 9.2578,8.62305 126.57468,126.57468 0 0 0 10.0722,7.65624 126.57468,126.57468 0 0 0 10.7852,6.61329 126.57468,126.57468 0 0 0 11.3926,5.5039 126.57468,126.57468 0 0 0 11.8867,4.33789 126.57468,126.57468 0 0 0 6.3965,1.63477 126.57468,126.57468 0 0 0 2.6406,-0.59375 126.57468,126.57468 0 0 0 12.0078,-3.98828 126.57468,126.57468 0 0 0 11.5488,-5.16992 126.57468,126.57468 0 0 0 10.9746,-6.29493 126.57468,126.57468 0 0 0 10.2911,-7.35937 126.57468,126.57468 0 0 0 9.5058,-8.34961 126.57468,126.57468 0 0 0 8.6231,-9.25781 126.57468,126.57468 0 0 0 7.6582,-10.07227 126.57468,126.57468 0 0 0 6.6133,-10.78711 126.57468,126.57468 0 0 0 5.5019,-11.39258 126.57468,126.57468 0 0 0 4.3399,-11.88476 126.57468,126.57468 0 0 0 3.1289,-12.25781 126.57468,126.57468 0 0 0 1.8906,-12.51172 202.67167,202.67167 0 0 0 0.6328,-12.63477 202.67167,202.67167 0 0 0 -0.3164,-8.95508 202.67167,202.67167 0 0 0 0,-0.0117 126.57468,126.57468 0 0 0 -1.5234,-12.54882 126.57468,126.57468 0 0 0 -2.7715,-12.34571 126.57468,126.57468 0 0 0 -3.9883,-12.00586 126.57468,126.57468 0 0 0 -5.1679,-11.54882 126.57468,126.57468 0 0 0 -6.2969,-10.97461 126.57468,126.57468 0 0 0 -7.3594,-10.29297 126.57468,126.57468 0 0 0 -1.8711,-2.12696 126.57468,126.57468 0 0 0 -6.4785,-7.375 126.57468,126.57468 0 0 0 -9.2578,-8.625 126.57468,126.57468 0 0 0 -10.0723,-7.65625 126.57468,126.57468 0 0 0 -10.7851,-6.61328 126.57468,126.57468 0 0 0 -11.3926,-5.5039 126.57468,126.57468 0 0 0 -11.8867,-4.33789 126.57468,126.57468 0 0 0 -6.3965,-1.63477 z m 0.1035,23.66211 a 25.11201,25.11201 0 0 1 2.5078,0.125 25.11201,25.11201 0 0 1 2.4824,0.375 25.11201,25.11201 0 0 1 2.4317,0.62109 25.11201,25.11201 0 0 1 2.3574,0.86133 25.11201,25.11201 0 0 1 2.2617,1.0918 25.11201,25.11201 0 0 1 2.1387,1.3125 25.11201,25.11201 0 0 1 1.998,1.51953 25.11201,25.11201 0 0 1 1.8379,1.71094 25.11201,25.11201 0 0 1 1.6563,1.88476 25.11201,25.11201 0 0 1 1.4609,2.04102 25.11201,25.11201 0 0 1 1.2481,2.17773 25.11201,25.11201 0 0 1 1.0254,2.29102 25.11201,25.11201 0 0 1 0.791,2.38281 25.11201,25.11201 0 0 1 0.5508,2.44922 25.11201,25.11201 0 0 1 0.3027,2.49219 25.11201,25.11201 0 0 1 0.062,1.77539 25.11201,25.11201 0 0 1 -0.125,2.50781 25.11201,25.11201 0 0 1 -0.375,2.48242 25.11201,25.11201 0 0 1 -0.6211,2.43164 25.11201,25.11201 0 0 1 -0.8613,2.35743 25.11201,25.11201 0 0 1 -1.0918,2.25976 25.11201,25.11201 0 0 1 -1.3125,2.14063 25.11201,25.11201 0 0 1 -1.5196,1.99804 25.11201,25.11201 0 0 1 -1.7109,1.83789 25.11201,25.11201 0 0 1 -1.8848,1.65625 25.11201,25.11201 0 0 1 -2.0429,1.45899 25.11201,25.11201 0 0 1 -2.1758,1.25 25.11201,25.11201 0 0 1 -2.293,1.02539 25.11201,25.11201 0 0 1 -2.3808,0.79101 25.11201,25.11201 0 0 1 -2.4493,0.55078 25.11201,25.11201 0 0 1 -2.4922,0.30079 25.11201,25.11201 0 0 1 -1.7773,0.0644 25.11201,25.11201 0 0 1 -2.5059,-0.12695 25.11201,25.11201 0 0 1 -2.4824,-0.375 25.11201,25.11201 0 0 1 -2.4316,-0.6211 25.11201,25.11201 0 0 1 -2.3574,-0.85937 25.11201,25.11201 0 0 1 -2.2618,-1.0918 25.11201,25.11201 0 0 1 -2.1386,-1.3125 25.11201,25.11201 0 0 1 -1.9981,-1.51953 25.11201,25.11201 0 0 1 -1.8379,-1.71094 25.11201,25.11201 0 0 1 -1.6562,-1.88476 25.11201,25.11201 0 0 1 -1.461,-2.04297 25.11201,25.11201 0 0 1 -1.248,-2.17774 25.11201,25.11201 0 0 1 -1.0254,-2.29101 25.11201,25.11201 0 0 1 -0.791,-2.38086 25.11201,25.11201 0 0 1 -0.5508,-2.44922 25.11201,25.11201 0 0 1 -0.3027,-2.49219 25.11201,25.11201 0 0 1 -0.062,-1.77734 25.11201,25.11201 0 0 1 0.125,-2.50586 25.11201,25.11201 0 0 1 0.375,-2.48242 25.11201,25.11201 0 0 1 0.6211,-2.43164 25.11201,25.11201 0 0 1 0.8613,-2.35938 25.11201,25.11201 0 0 1 1.0918,-2.25976 25.11201,25.11201 0 0 1 1.3125,-2.13868 25.11201,25.11201 0 0 1 1.5195,-2 25.11201,25.11201 0 0 1 1.711,-1.83593 25.11201,25.11201 0 0 1 1.8847,-1.65625 25.11201,25.11201 0 0 1 2.043,-1.46094 25.11201,25.11201 0 0 1 2.1758,-1.24805 25.11201,25.11201 0 0 1 2.2929,-1.02539 25.11201,25.11201 0 0 1 2.3809,-0.79101 25.11201,25.11201 0 0 1 2.4492,-0.55079 25.11201,25.11201 0 0 1 2.4922,-0.30273 25.11201,25.11201 0 0 1 1.7754,-0.0625 z"
         style="opacity:0.98000004;fill:url(#linearGradient4741);fill-opacity:1;stroke:none;stroke-width:0.99999994;stroke-miterlimit:4;stroke-dasharray:none;stroke-dashoffset:0;stroke-opacity:1" />
      <path
         inkscape:connector-curvature="0"
         id="path4612"
         transform="scale(0.26458333)"
         d="m -1363.8828,377.16211 a 126.57468,126.57468 0 0 0 -8.9531,0.31836 126.57468,126.57468 0 0 0 -12.5606,1.52344 126.57468,126.57468 0 0 0 -9.7031,2.17773 126.57468,126.57468 0 0 1 6.3965,1.63477 126.57468,126.57468 0 0 1 11.8867,4.33789 126.57468,126.57468 0 0 1 11.3926,5.5039 126.57468,126.57468 0 0 1 10.7851,6.61328 126.57468,126.57468 0 0 1 10.0723,7.65625 126.57468,126.57468 0 0 1 9.2578,8.625 126.57468,126.57468 0 0 1 6.4785,7.375 126.57468,126.57468 0 0 1 1.8711,2.12891 126.57468,126.57468 0 0 1 7.3594,10.29297 126.57468,126.57468 0 0 1 6.2969,10.97461 126.57468,126.57468 0 0 1 5.1679,11.54883 126.57468,126.57468 0 0 1 3.9883,12.00586 126.57468,126.57468 0 0 1 2.7715,12.3457 126.57468,126.57468 0 0 1 1.5234,12.54883 202.67167,202.67167 0 0 0 -0.1894,-5.37305 202.67167,202.67167 0 0 0 -2.4414,-20.11133 202.67167,202.67167 0 0 0 -4.4356,-19.76562 202.67167,202.67167 0 0 0 -6.3886,-19.22461 202.67167,202.67167 0 0 0 -7.9961,-17.86719 202.67167,202.67167 0 0 0 -0.2793,-0.625 202.67167,202.67167 0 0 0 -10.0801,-17.57226 202.67167,202.67167 0 0 0 -10.8067,-15.11329 126.57468,126.57468 0 0 0 -8.7773,-1.32617 126.57468,126.57468 0 0 0 -12.6367,-0.63281 z"
         style="opacity:0.98000004;fill:url(#linearGradient4727);fill-opacity:1;stroke:none;stroke-width:0.99999994;stroke-miterlimit:4;stroke-dasharray:none;stroke-dashoffset:0;stroke-opacity:1" />
      <path
         inkscape:connector-curvature="0"
         id="path4608"
         transform="scale(0.26458333)"
         d="m -1342.4688,379.12109 a 202.67167,202.67167 0 0 1 10.8067,15.11329 202.67167,202.67167 0 0 1 10.0801,17.57226 202.67167,202.67167 0 0 1 0.2793,0.625 202.67167,202.67167 0 0 1 7.9961,17.86719 202.67167,202.67167 0 0 1 6.3886,19.22461 202.67167,202.67167 0 0 1 4.4356,19.76562 202.67167,202.67167 0 0 1 2.4414,20.11133 202.67167,202.67167 0 0 1 0.1894,5.37305 202.67167,202.67167 0 0 1 0,0.0117 202.67167,202.67167 0 0 1 0.3164,8.95507 75.843345,75.843345 0 0 1 0.3789,-7.57226 75.843345,75.843345 0 0 1 1.1328,-7.49609 75.843345,75.843345 0 0 1 1.875,-7.34571 75.843345,75.843345 0 0 1 2.5996,-7.12109 75.843345,75.843345 0 0 1 3.2989,-6.82617 75.843345,75.843345 0 0 1 3.9628,-6.46289 75.843345,75.843345 0 0 1 4.5879,-6.03711 75.843345,75.843345 0 0 1 5.168,-5.54688 75.843345,75.843345 0 0 1 5.6953,-5.00195 75.843345,75.843345 0 0 1 6.166,-4.41016 75.843345,75.843345 0 0 1 6.5762,-3.77344 75.843345,75.843345 0 0 1 0.9356,-0.41796 126.57468,126.57468 0 0 0 -0.2168,-0.37696 126.57468,126.57468 0 0 0 -7.3594,-10.29297 126.57468,126.57468 0 0 0 -8.3516,-9.5039 126.57468,126.57468 0 0 0 -9.2558,-8.625 126.57468,126.57468 0 0 0 -10.0723,-7.65625 126.57468,126.57468 0 0 0 -10.7871,-6.61328 126.57468,126.57468 0 0 0 -5.4356,-2.625 202.67167,202.67167 0 0 0 0,-0.002 126.57468,126.57468 0 0 0 -5.957,-2.8789 126.57468,126.57468 0 0 0 -11.8848,-4.33789 126.57468,126.57468 0 0 0 -12.2597,-3.13086 126.57468,126.57468 0 0 0 -3.7325,-0.56446 z"
         style="opacity:0.98000004;fill:url(#linearGradient4719);fill-opacity:1;stroke:none;stroke-width:0.99999994;stroke-miterlimit:4;stroke-dasharray:none;stroke-dashoffset:0;stroke-opacity:1" />
      <path
         transform="scale(0.26458333)"
         inkscape:connector-curvature="0"
         id="path4799"
         d="m -1405.3241,451.60336 c -12.2589,-6.06807 -17.0929,-21.11215 -10.6108,-33.02207 3.3902,-6.22882 9.4255,-10.58705 16.8044,-12.1348 18.9111,-3.96663 34.4136,16.85391 25.5032,34.25181 -2.3718,4.63114 -7.5872,9.53137 -12.1856,11.44932 -5.3898,2.24799 -14.3767,1.9973 -19.5112,-0.54426 z"
         style="opacity:0.98000004;fill:#ffffff;fill-opacity:1;fill-rule:evenodd;stroke:none;stroke-width:0;stroke-miterlimit:4;stroke-dasharray:none;stroke-dashoffset:0;stroke-opacity:1" />
    </g>
  </g>
</svg>
