<?xml version="1.0" encoding="UTF-8" standalone="no"?>
<!-- Created with Inkscape (http://www.inkscape.org/) -->

<svg
   version="1.1"
   id="svg2"
   width="1695.1228"
   height="1694.144"
   viewBox="0 0 1695.1227 1694.1443"
   sodipodi:docname="logo.svg"
   inkscape:version="1.2.1 (9c6d41e410, 2022-07-14)"
   inkscape:export-filename="logo.png"
   inkscape:export-xdpi="300"
   inkscape:export-ydpi="300"
   xmlns:inkscape="http://www.inkscape.org/namespaces/inkscape"
   xmlns:sodipodi="http://sodipodi.sourceforge.net/DTD/sodipodi-0.dtd"
   xmlns:xlink="http://www.w3.org/1999/xlink"
   xmlns="http://www.w3.org/2000/svg"
   xmlns:svg="http://www.w3.org/2000/svg">
  <defs
     id="defs6">
    <linearGradient
       inkscape:collect="always"
       id="linearGradient2257">
      <stop
         style="stop-color:#daf5fe;stop-opacity:1;"
         offset="0"
         id="stop2253" />
      <stop
         style="stop-color:#fbfda5;stop-opacity:0.4375;"
         offset="1"
         id="stop2255" />
    </linearGradient>
    <linearGradient
       inkscape:collect="always"
       id="linearGradient2233">
      <stop
         style="stop-color:#efeca7;stop-opacity:1;"
         offset="0"
         id="stop2229" />
      <stop
         style="stop-color:#c6fbd2;stop-opacity:1;"
         offset="1"
         id="stop2231" />
    </linearGradient>
    <radialGradient
       inkscape:collect="always"
       xlink:href="#linearGradient2233"
       id="radialGradient2235"
       cx="-2480.8843"
       cy="111.1205"
       fx="-2480.8843"
       fy="111.1205"
       r="786.07495"
       gradientUnits="userSpaceOnUse" />
    <radialGradient
       inkscape:collect="always"
       xlink:href="#linearGradient2257"
       id="radialGradient2259"
       cx="-2480.8843"
       cy="111.1205"
       fx="-2480.8843"
       fy="111.1205"
       r="829.66693"
       gradientUnits="userSpaceOnUse" />
  </defs>
  <sodipodi:namedview
     id="namedview4"
     pagecolor="#ffffff"
     bordercolor="#999999"
     borderopacity="1"
     inkscape:showpageshadow="0"
     inkscape:pageopacity="0"
     inkscape:pagecheckerboard="0"
     inkscape:deskcolor="#d1d1d1"
     showgrid="false"
     inkscape:zoom="0.47280512"
     inkscape:cx="847.07204"
     inkscape:cy="847.07204"
     inkscape:window-width="1920"
     inkscape:window-height="991"
     inkscape:window-x="-9"
     inkscape:window-y="-9"
     inkscape:window-maximized="1"
     inkscape:current-layer="g8" />
  <g
     inkscape:groupmode="layer"
     inkscape:label="Image"
     id="g8"
     transform="translate(3310.7687,718.76256)">
    <g
       style="fill:#175483;fill-opacity:0.69804001;stroke:#333333;stroke-width:3.77952;stroke-linecap:round;stroke-linejoin:round;stroke-miterlimit:10;stroke-opacity:0.69804;stop-color:#000000"
       id="g1636">
      <path
         id="path1624"
         d="m -1895.9191,-474.80944 c 211.3898,211.38679 300.6096,530.340728 204.4297,835.07422 l 0.2969,0.29688 c -141.5486,432.42096 -608.82,677.86684 -1042.4883,538.79101 l 35.3613,35.35352 c 433.1282,138.91081 899.765,-107.88789 1041.9258,-539.33984 l 0.2539,0.2539 c 96.1799,-304.733193 6.9601,-623.68938 -204.4297,-835.07617 z"
         style="fill:#175483;fill-opacity:0.69804001" />
      <path
         d="m -2733.68,899.352 c -129.7,-41.597 -242.05,-112.182 -332.17,-202.305 l 35.35,35.355 c 90.12,90.124 202.47,160.708 332.18,202.305 z"
         id="path1626"
         style="fill:#175483;fill-opacity:0.69804001" />
      <path
         d="M -3065.85,697.047 C -3277.88,485.018 -3366.9,164.842 -3269.5,-140.457 l 35.35,35.355 c -97.39,305.299 -8.38,625.476 203.65,837.504 z"
         id="path1628"
         style="fill:#175483;fill-opacity:0.69804001" />
      <path
         d="m -3269.5,-140.457 c 138.79,-435.069 603.7,-675.55 1038.98,-537.43 l 35.35,35.355 c -435.28,-138.12 -900.19,102.362 -1038.98,537.43 z"
         id="path1630"
         style="fill:#175483;fill-opacity:0.69804001" />
      <path
         d="m -2230.52,-677.887 c 130.69,41.472 243.89,112.371 334.6,203.077 l 35.35,35.355 c -90.7,-90.705 -203.9,-161.605 -334.6,-203.077 z"
         id="path1632"
         style="fill:#175483;fill-opacity:0.69804001" />
    </g>
    <path
       style="fill:url(#radialGradient2259);fill-opacity:1;stroke:#333333;stroke-width:3.77952;stroke-linecap:round;stroke-linejoin:round;stroke-miterlimit:10;stroke-opacity:0.69804;stop-color:#000000"
       id="path1447"
       sodipodi:type="arc"
       sodipodi:cx="-2480.8843"
       sodipodi:cy="111.12054"
       sodipodi:rx="827.77643"
       sodipodi:ry="827.77643"
       sodipodi:start="0.31188932"
       sodipodi:end="0.30572044"
       sodipodi:open="true"
       sodipodi:arc-type="arc"
       d="m -1693.0435,365.12982 a 827.77643,827.77643 0 0 1 -1040.6347,534.2223 827.77643,827.77643 0 0 1 -535.8266,-1039.80962 827.77643,827.77643 0 0 1 1038.982,-537.42952 827.77643,827.77643 0 0 1 539.0313,1038.15194" />
    <g
       style="fill:#06600a;fill-opacity:0.69804001;stroke:#333333;stroke-width:3.77952;stroke-linecap:round;stroke-linejoin:round;stroke-miterlimit:10;stroke-opacity:0.69804;stop-color:#000000"
       id="g3022">
      <path
         d="m -1734.53,351.753 c -132.76,411.75 -573.88,638.207 -985.84,506.09 l 14.15,14.142 c 411.95,132.115 853.08,-94.34 985.83,-506.09 z"
         id="path3010"
         style="fill:#06600a;fill-opacity:0.69804001" />
      <path
         d="m -2720.37,857.843 c -122.87,-39.407 -229.3,-106.275 -314.68,-191.652 l 14.14,14.142 c 85.38,85.377 191.81,152.245 314.69,191.652 z"
         id="path3012"
         style="fill:#06600a;fill-opacity:0.69804001" />
      <path
         d="m -3035.05,666.191 c -200.86,-200.863 -285.19,-504.178 -192.92,-793.4 l 14.14,14.142 c -92.27,289.222 -7.94,592.537 192.92,793.4 z"
         id="path3014"
         style="fill:#06600a;fill-opacity:0.69804001" />
      <path
         d="m -3227.97,-127.209 c 131.48,-412.157 571.9,-639.974 984.26,-509.128 l 14.14,14.142 c -412.35,-130.846 -852.78,96.971 -984.26,509.128 z"
         id="path3016"
         style="fill:#06600a;fill-opacity:0.69804001" />
      <path
         d="m -2243.71,-636.337 c 123.82,39.288 231.05,106.454 316.98,192.383 l 14.15,14.142 c -85.93,-85.929 -193.17,-153.095 -316.99,-192.383 z"
         id="path3018"
         style="fill:#06600a;fill-opacity:0.69804001" />
      <path
         d="m -1926.73,-443.954 c 200.26,200.255 284.78,502.4126 193.67,791.099 l 14.14,14.142 c 91.11,-288.6863 6.59,-590.844 -193.66,-791.099 z"
         id="path3020"
         style="fill:#06600a;fill-opacity:0.69804001" />
    </g>
    <path
       style="fill:url(#radialGradient2235);fill-opacity:1;stroke:#333333;stroke-width:3.77952;stroke-linecap:round;stroke-linejoin:round;stroke-miterlimit:10;stroke-opacity:0.69804;stop-color:#000000"
       id="path832"
       sodipodi:type="arc"
       sodipodi:cx="-2480.8843"
       sodipodi:cy="111.12054"
       sodipodi:rx="784.18445"
       sodipodi:ry="784.18445"
       sodipodi:start="0.31188932"
       sodipodi:end="0.30572044"
       sodipodi:open="true"
       sodipodi:arc-type="arc"
       d="m -1734.5324,351.7533 a 784.18445,784.18445 0 0 1 -985.8333,506.08933 784.18445,784.18445 0 0 1 -507.6091,-985.05164 784.18445,784.18445 0 0 1 984.2676,-509.12766 784.18445,784.18445 0 0 1 510.645,983.48127" />
    <g
       id="g510"
       transform="matrix(0.91658288,0,0,0.90641684,-1264.5696,-410.89108)"
       style="stroke-width:1.09711">
      <g
         style="fill:#000000;fill-opacity:1;stroke:#000000;stroke-width:4.14656;stroke-linecap:butt;stroke-linejoin:miter;stroke-dasharray:none;stroke-opacity:1"
         id="g507">
        <path
           d="M -1433.39,-30.7333 V 1143.86 l 35.35,35.36 V 4.62202 Z"
           id="path455"
           style="stroke-width:4.14656" />
        <path
           d="m -1433.39,1143.86 h 266.32 l 35.36,35.36 h -266.33 z"
           id="path457"
           style="stroke-width:4.14656" />
        <path
           d="m -1167.07,1143.86 c 0,0 6.18,-12.98 -2.48,-31.12 l 35.35,35.35 c 8.66,18.15 2.49,31.13 2.49,31.13 z"
           id="path459"
           style="stroke-width:4.14656" />
        <path
           d="m -1169.55,1112.74 c -6.81,-14.27 -14.33,-27.92 -18.09,-52.95 l 35.36,35.36 c 3.76,25.03 11.27,38.68 18.08,52.94 z"
           id="path461"
           style="stroke-width:4.14656" />
        <path
           d="m -1187.64,1059.79 c -8.27,-55.11 0,-285.375 0,-285.375 l 35.36,35.355 c 0,0 -8.28,230.27 0,285.38 z"
           id="path463"
           style="stroke-width:4.14656" />
        <path
           d="m -1187.64,774.415 c 0,0 25.16,12.838 62.12,49.795 l 35.35,35.355 c -36.95,-36.957 -62.11,-49.795 -62.11,-49.795 z"
           id="path465"
           style="stroke-width:4.14656" />
        <path
           d="m -1125.52,824.21 c 34.14,34.142 78.35,88.869 122.09,173.076 l 35.356,35.354 c -43.736,-84.206 -87.946,-138.933 -122.096,-173.075 z"
           id="path467"
           style="stroke-width:4.14656" />
        <path
           d="m -1003.43,997.286 c 19.853,49.604 31.637,99.484 5.02,146.574 l 35.355,35.36 c 26.618,-47.1 14.834,-96.98 -5.019,-146.58 z"
           id="path469"
           style="stroke-width:4.14656" />
        <path
           d="m -998.41,1143.86 h 334.307 l 35.355,35.36 h -334.307 z"
           id="path471"
           style="stroke-width:4.14656" />
        <path
           d="m -664.103,1143.86 c -2.008,-18.07 -16.877,-20.14 -38.149,-56.22 l 35.356,35.36 c 21.272,36.07 36.14,38.15 38.148,56.22 z"
           id="path473"
           style="stroke-width:4.14656" />
        <path
           d="m -702.252,1087.64 c -21.272,-36.08 -66.283,-157.044 -111.435,-228.895 l 35.355,35.356 c 45.152,71.85 90.163,192.819 111.436,228.899 z"
           id="path475"
           style="stroke-width:4.14656" />
        <path
           d="M -813.687,858.745 C -872.251,765.553 -1018.49,599.732 -1018.49,599.732 l 35.357,35.355 c 0,0 146.237,165.821 204.801,259.014 z"
           id="path477"
           style="stroke-width:4.14656" />
        <path
           d="m -1018.49,599.732 c 0,0 175.964,-23.265 253.994,-114.452 l 35.356,35.356 c -78.031,91.187 -253.993,114.451 -253.993,114.451 z"
           id="path479"
           style="stroke-width:4.14656" />
        <path
           d="m -764.496,485.28 c 46.996,-54.92 72.013,-123.482 71.279,-195.761 l 35.356,35.355 c 0.734,72.28 -24.283,140.841 -71.279,195.762 z"
           id="path481"
           style="stroke-width:4.14656" />
        <path
           d="m -693.217,289.519 c -0.898,-88.513 -13.81,-166.271 -92.361,-245.9633 l 35.355,35.3554 c 78.552,79.6919 91.463,157.4499 92.362,245.9629 z"
           id="path483"
           style="stroke-width:4.14656" />
        <path
           d="m -785.578,43.5557 c -0.405,-0.4112 -0.811,-0.8203 -1.218,-1.2273 l 35.355,35.3554 c 0.407,0.4069 0.813,0.816 1.218,1.2273 z"
           id="path485"
           style="stroke-width:4.14656" />
        <path
           d="m -786.796,42.3284 c -42.236,-42.2351839 -92.835,-61.1296 -164.428,-73.0617 l 35.355,35.35532 c 71.593,11.93218 122.193,30.82658 164.428,73.06178 z"
           id="path487"
           style="stroke-width:4.14656" />
        <path
           d="m -951.224,-30.7333 h -482.166 l 35.35,35.35532 h 482.171 z"
           id="path489"
           style="stroke-width:4.14656" />
        <path
           d="m -1036.82,155.925 c 18.91,0.231 33.67,0.848 39.414,2.08 l 35.355,35.355 c -5.741,-1.232 -20.501,-1.849 -39.409,-2.08 z"
           id="path491"
           style="stroke-width:4.14656" />
        <path
           d="m -997.406,158.005 c 33.02,7.086 62.835,22.878 84.301,44.343 l 35.355,35.356 c -21.466,-21.466 -51.28,-37.258 -84.301,-44.344 z"
           id="path493"
           style="stroke-width:4.14656" />
        <path
           d="m -913.105,202.348 c 21.89,21.891 35.098,49.682 34.168,80.159 l 35.355,35.355 c 0.93,-30.477 -12.277,-58.268 -34.168,-80.158 z"
           id="path495"
           style="stroke-width:4.14656" />
        <path
           d="m -878.937,282.507 c -1.843,60.363 -23.348,118.228 -118.469,138.525 l 35.355,35.356 c 95.121,-20.297 116.627,-78.163 118.469,-138.526 z"
           id="path497"
           style="stroke-width:4.14656" />
        <path
           d="m -997.406,421.032 c -35.484,7.572 -190.234,0 -190.234,0 l 35.36,35.356 c 0,0 154.744,7.572 190.229,0 z"
           id="path499"
           style="stroke-width:4.14656" />
        <path
           d="M -1187.64,421.032 V 158.005 l 35.36,35.355 v 263.028 z"
           id="path501"
           style="stroke-width:4.14656" />
        <path
           d="m -1187.64,158.005 c 0,0 94.09,-2.773 150.82,-2.08 l 35.36,35.355 c -56.73,-0.693 -150.82,2.08 -150.82,2.08 z"
           id="path503"
           style="stroke-width:4.14656" />
        <path
           d="m -1036.82,155.925 v 0 l 35.36,35.355 v 0 z"
           id="path505"
           style="stroke-width:4.14656" />
      </g>
      <path
         id="path506-7"
         style="fill:#1fad52;fill-opacity:1;stroke:#000000;stroke-width:4.14656;stroke-linecap:butt;stroke-linejoin:miter;stroke-dasharray:none;stroke-opacity:1"
         d="M -1433.3923,-30.733321 V 1143.8605 h 266.3222 c 0,0 6.1787,-12.9755 -2.4843,-31.1231 -6.8089,-14.2634 -14.3255,-27.9152 -18.084,-52.9473 -8.2742,-55.106 0,-285.37498 0,-285.37498 0,0 93.1239,47.51406 184.209,222.87105 19.8527,49.60183 31.6366,99.48053 5.0195,146.57433 h 334.3066 c -2.0079,-18.0707 -16.8762,-20.1446 -38.1484,-56.2207 -21.2722,-36.0762 -66.28353,-157.04427 -111.4356,-228.89461 -58.56395,-93.19262 -204.8007,-259.01367 -204.8007,-259.01367 0,0 175.9619,-23.26411 253.9922,-114.45117 46.9962,-54.92032 72.013,-123.48207 71.2792,-195.76172 -0.8985,-88.51306 -13.8102,-166.27059 -92.3613,-245.96289 -42.4806,-43.09779 -93.3638,-62.241962 -165.6465,-74.289061 z m 396.5742,186.658201 c 18.9107,0.231 33.6711,0.8481 39.4121,2.08008 66.694,14.3121 120.311,64.13927 118.4687,124.50195 -1.8423,60.36268 -23.348,118.22833 -118.4687,138.52539 -35.4857,7.57202 -190.2324,0 -190.2324,0 V 158.00496 c 0,0 94.0881,-2.77307 150.8203,-2.08008 z"
         sodipodi:nodetypes="cccssccccsacsssccssssccs" />
    </g>
    <g
       id="g561"
       style="stroke-width:1.10321"
       transform="matrix(0.90646698,0,0,0.90641684,-1303.0682,-410.89108)">
      <g
         style="fill:#000000;fill-opacity:1;stroke:#000000;stroke-width:4.16963;stroke-linecap:butt;stroke-linejoin:miter;stroke-dasharray:none;stroke-opacity:1"
         id="g558">
        <path
           d="m -1359.05,-30.7333 4.33,858.5443 35.35,35.356 -4.33,-858.54498 z"
           id="path512"
           style="stroke-width:4.16963" />
        <path
           d="m -1354.72,827.811 c 0.42,85.311 -41.08,207.839 -91.35,246.619 l 35.36,35.35 c 50.26,-38.78 91.77,-161.303 91.34,-246.613 z"
           id="path514"
           style="stroke-width:4.16963" />
        <path
           d="m -1446.07,1074.43 c -50.26,38.78 -132.44,63.22 -194.04,69.43 l 35.35,35.36 c 61.61,-6.21 143.79,-30.66 194.05,-69.44 z"
           id="path516"
           style="stroke-width:4.16963" />
        <path
           d="m -1640.11,1143.86 c -61.61,6.21 -132.17,4.61 -235.61,-54.4 l 35.35,35.35 c 103.45,59.02 174,60.62 235.61,54.41 z"
           id="path518"
           style="stroke-width:4.16963" />
        <path
           d="m -1875.72,1089.46 c -23.81,-13.59 -43.46,-28.8 -59.73,-45.07 l 35.36,35.36 c 16.26,16.27 35.91,31.48 59.72,45.06 z"
           id="path520"
           style="stroke-width:4.16963" />
        <path
           d="m -1935.45,1044.39 c -54.41,-54.411 -71.02,-120.678 -78.99,-177.582 l 35.35,35.355 c 7.98,56.904 24.58,123.167 79,177.587 z"
           id="path522"
           style="stroke-width:4.16963" />
        <path
           d="m -2014.44,866.808 c -10.36,-73.917 12.36,-158.466 58,-224.358 l 35.35,35.356 c -45.64,65.891 -68.36,150.44 -58,224.357 z"
           id="path524"
           style="stroke-width:4.16963" />
        <path
           d="m -1956.44,642.45 c 23.76,-34.304 59.64,-57.865 59.64,-57.865 l 35.36,35.356 c 0,0 -35.89,23.56 -59.65,57.865 z"
           id="path526"
           style="stroke-width:4.16963" />
        <path
           d="m -1896.8,584.585 c 0,0 208.85,54.531 209.22,54.901 l 35.36,35.355 c -0.37,-0.37 -209.22,-54.9 -209.22,-54.9 z"
           id="path528"
           style="stroke-width:4.16963" />
        <path
           d="m -1687.58,639.486 c 0,10e-4 0,0.002 0,0.002 l 35.36,35.355 c 0,0 0,-10e-4 0,-0.002 z"
           id="path530"
           style="stroke-width:4.16963" />
        <path
           d="m -1687.58,639.488 c 9.1,10.844 -12.05,23.356 -31.56,31.556 l 35.36,35.355 c 19.51,-8.2 40.66,-20.711 31.56,-31.556 z"
           id="path532"
           style="stroke-width:4.16963" />
        <path
           d="m -1719.14,671.044 c -19.51,8.199 -22.66,4.058 -60.92,57.919 l 35.35,35.355 c 38.27,-53.861 41.42,-49.72 60.93,-57.919 z"
           id="path534"
           style="stroke-width:4.16963" />
        <path
           d="m -1780.06,728.963 c -36.26,51.04 -30.55,147.556 18.63,196.743 l 35.36,35.355 c -49.19,-49.187 -54.89,-145.702 -18.64,-196.743 z"
           id="path536"
           style="stroke-width:4.16963" />
        <path
           d="m -1761.43,925.706 c 2.72,2.719 5.57,5.293 8.56,7.707 l 35.35,35.356 c -2.98,-2.414 -5.83,-4.989 -8.55,-7.708 z"
           id="path538"
           style="stroke-width:4.16963" />
        <path
           d="m -1752.87,933.413 c 49.17,39.64 186.59,43.826 200.16,-26.982 l 35.35,35.355 c -13.56,70.804 -150.98,66.624 -200.16,26.983 z"
           id="path540"
           style="stroke-width:4.16963" />
        <path
           d="m -1552.71,906.431 c 11.8,-82.819 10.54,-634.897 0,-816.7935 l 35.35,35.3555 c 10.55,181.896 11.81,733.974 0,816.793 z"
           id="path542"
           style="stroke-width:4.16963" />
        <path
           d="m -1552.71,89.6375 c 0,0 -243.48,-2.8803 -261.09,0 l 35.35,35.3555 c 17.61,-2.88 261.09,0 261.09,0 z"
           id="path544"
           style="stroke-width:4.16963" />
        <path
           d="m -1813.8,89.6375 c -68.02,11.1235 -92.06,74.7145 -108.94,129.6815 l 35.36,35.355 c 16.88,-54.967 40.92,-118.558 108.93,-129.681 z"
           id="path546"
           style="stroke-width:4.16963" />
        <path
           d="m -1922.74,219.319 c 0,0 -5.1,-249.3747 0,-261.0922 l 35.36,35.3553 c -5.11,11.7175 0,261.0919 0,261.0919 z"
           id="path548"
           style="stroke-width:4.16963" />
        <path
           d="m -1922.74,-41.7732 c 7.44,-17.0658 41.09,4.3136 53.91,8.9514 l 35.36,35.35539 c -12.82,-4.63786 -46.47,-26.01729 -53.91,-8.95149 z"
           id="path550"
           style="stroke-width:4.16963" />
        <path
           d="m -1868.83,-32.8218 c 14.39,5.2028 85.4,11.5917 144.94,11.7976 l 35.36,35.3554 c -59.55,-0.206 -130.56,-6.59485 -144.94,-11.79761 z"
           id="path552"
           style="stroke-width:4.16963" />
        <path
           d="m -1723.89,-21.0242 c 14.2,0.0491 252.04,4.9401 364.84,-9.7091 l 35.35,35.35532 c -112.8,14.64928 -350.64,9.75828 -364.83,9.70918 z"
           id="path554"
           style="stroke-width:4.16963" />
        <path
           d="m -1359.05,-30.7333 v 0 l 35.35,35.35532 v 0 z"
           id="path556"
           style="stroke-width:4.16963" />
      </g>
      <path
         style="fill:#2270c3;fill-opacity:1;stroke:#000000;stroke-width:4.16963;stroke-linecap:butt;stroke-linejoin:miter;stroke-dasharray:none;stroke-opacity:1"
         d="m -1359.0524,-30.733321 4.3281,858.544691 c 0.4269,85.31054 -41.0783,207.83683 -91.3413,246.61563 -50.263,38.7788 -132.4395,63.2234 -194.0491,69.4335 -61.6097,6.2102 -132.1642,4.6112 -235.6083,-54.405 -103.4441,-59.0162 -128.3588,-148.73073 -138.7189,-222.64781 -10.36,-73.9171 12.3613,-158.4661 57.9991,-224.35732 23.7602,-34.3047 59.6438,-57.86503 59.6438,-57.86503 0,0 210.0568,54.84502 209.2197,54.90234 9.1015,10.84477 -12.0458,23.35629 -31.5558,31.55587 -19.51,8.19958 -22.6647,4.05819 -60.9255,57.91961 -38.2609,53.86142 -29.7945,158.36542 27.1893,204.45011 49.1759,39.6396 186.5949,43.8259 200.1609,-26.9822 11.8013,-82.81897 10.5454,-634.8973 0,-816.79357 0,0 -243.4809,-2.88026 -261.0923,0 -68.0146,11.12344 -92.0529,74.71446 -108.9326,129.68165 0,0 -5.1065,-249.374887 0,-261.092389 7.4372,-17.065796 41.0855,4.313628 53.9078,8.951488 14.3841,5.202759 85.3958,11.591621 144.9374,11.797576 14.1958,0.0491 252.0385,4.940103 364.8377,-9.709146 z"
         id="path502-3"
         sodipodi:nodetypes="cszzzzscczzcccscsssc" />
    </g>
    <g
       id="g453"
       transform="matrix(0.86151093,0,0,0.86167629,-1361.2408,-398.25619)"
       style="stroke-width:1.16064">
      <g
         style="fill:#000000;fill-opacity:1;stroke:#000000;stroke-width:4.38667;stroke-linecap:butt;stroke-linejoin:miter;stroke-dasharray:none;stroke-opacity:1"
         id="g450">
        <path
           d="m -1036.58,1.45398 h -382.56 l 35.35,35.35532 h 382.57 z"
           id="path402"
           style="stroke-width:4.38667" />
        <path
           d="m -1419.14,1.45398 c -24.21,0.43227 -57.93,-27.66538 -64.84,-8.64545 l 35.35,35.35537 c 6.92,-19.02 40.63,9.0777 64.84,8.6454 z"
           id="path404"
           style="stroke-width:4.38667" />
        <path
           d="M -1483.98,-7.19147 V 350.73 l 35.35,35.355 V 28.1639 Z"
           id="path406"
           style="stroke-width:4.38667" />
        <path
           d="m -1483.98,350.73 h 256.34 l 35.35,35.355 h -256.34 z"
           id="path408"
           style="stroke-width:4.38667" />
        <path
           d="m -1227.64,350.73 c 41.06,4.323 70.85,3.423 94.83,26.801 l 35.35,35.355 c -23.98,-23.378 -53.76,-22.478 -94.83,-26.801 z"
           id="path410"
           style="stroke-width:4.38667" />
        <path
           d="m -1132.81,377.531 c 52.42,71.931 -8.29,175.159 -57.86,211.813 l 35.35,35.355 c 49.58,-36.654 110.29,-139.882 57.86,-211.813 z"
           id="path412"
           style="stroke-width:4.38667" />
        <path
           d="m -1190.67,589.344 c -18.38,13.088 -39.32,23.844 -61.39,28.53 l 35.36,35.355 c 22.07,-4.686 43,-15.442 61.38,-28.53 z"
           id="path414"
           style="stroke-width:4.38667" />
        <path
           d="m -1252.06,617.874 c -16.91,3.592 -51.87,-0.864 -51.87,-0.864 l 35.36,35.355 c 0,0 34.95,4.456 51.87,0.864 z"
           id="path416"
           style="stroke-width:4.38667" />
        <path
           d="m -1303.93,617.01 c 0,0 0,0 0,0 l 35.36,35.355 c 0,0 0,0 0,0 z"
           id="path418"
           style="stroke-width:4.38667" />
        <path
           d="m -1303.93,617.01 v 248.124 l 35.36,35.355 V 652.365 Z"
           id="path420"
           style="stroke-width:4.38667" />
        <path
           d="m -1303.93,865.134 c 0,0 155.63,-105.198 209.22,-170.315 l 35.36,35.355 c -53.59,65.117 -209.22,170.315 -209.22,170.315 z"
           id="path422"
           style="stroke-width:4.38667" />
        <path
           d="m -1094.71,694.819 c 53.59,-65.118 102.714,-182.051 102.224,-267.145 l 35.356,35.356 c 0.49,85.094 -48.64,202.027 -102.22,267.144 z"
           id="path424"
           style="stroke-width:4.38667" />
        <path
           d="m -992.486,427.674 c -0.754,-43.308 -12.234,-100.361 -42.364,-134.004 l 35.357,35.355 c 30.132,33.644 41.608,90.696 42.363,134.005 z"
           id="path426"
           style="stroke-width:4.38667" />
        <path
           d="m -1034.85,293.67 c -1.23,-1.371 -2.49,-2.707 -3.8,-4.01 l 35.36,35.356 c 1.3,1.303 2.57,2.639 3.797,4.009 z"
           id="path428"
           style="stroke-width:4.38667" />
        <path
           d="m -1038.65,289.66 c -30.68,-30.681 -81.5,-42.884 -115.51,-48.727 l 35.36,35.355 c 34,5.843 84.83,18.046 115.51,48.728 z"
           id="path430"
           style="stroke-width:4.38667" />
        <path
           d="m -1154.16,240.933 c -44.21,-7.598 -185.01,0 -185.01,0 l 35.36,35.355 c 0,0 140.8,-7.597 185.01,0 z"
           id="path432"
           style="stroke-width:4.38667" />
        <path
           d="M -1339.17,240.933 V 121.626 l 35.36,35.355 v 119.307 z"
           id="path434"
           style="stroke-width:4.38667" />
        <path
           d="m -1339.17,121.626 h 140.06 l 35.35,35.355 h -140.05 z"
           id="path436"
           style="stroke-width:4.38667" />
        <path
           d="m -1199.11,121.626 c 7.79,0 12.85,3.412 17.02,7.579 l 35.35,35.356 c -4.16,-4.167 -9.22,-7.58 -17.02,-7.58 z"
           id="path438"
           style="stroke-width:4.38667" />
        <path
           d="m -1182.09,129.205 c 4.45,4.453 7.89,9.767 12.56,12.701 l 35.36,35.355 c -4.68,-2.933 -8.11,-8.248 -12.57,-12.7 z"
           id="path440"
           style="stroke-width:4.38667" />
        <path
           d="m -1169.53,141.906 c 2.4,1.501 5.11,2.379 8.46,2.198 l 35.35,35.355 c -3.34,0.181 -6.06,-0.697 -8.45,-2.198 z"
           id="path442"
           style="stroke-width:4.38667" />
        <path
           d="m -1161.07,144.104 c 10.81,0.864 19.44,-18.619 28.53,-28.53 l 35.35,35.355 c -9.09,9.911 -17.72,29.395 -28.53,28.53 z"
           id="path444"
           style="stroke-width:4.38667" />
        <path
           d="m -1132.54,115.574 c 33.6,-36.6264 95.96,-114.12002 95.96,-114.12002 l 35.36,35.35532 c 0,0 -62.37,77.4937 -95.97,114.1197 z"
           id="path446"
           style="stroke-width:4.38667" />
        <path
           d="m -1036.58,1.45398 v 0 l 35.36,35.35532 v 0 z"
           id="path448"
           style="stroke-width:4.38667" />
      </g>
      <path
         style="fill:#42d6f0;fill-opacity:1;stroke:#000000;stroke-width:4.38667;stroke-linecap:butt;stroke-linejoin:miter;stroke-dasharray:none;stroke-opacity:1"
         d="m -1036.5774,1.45398 h -382.5668 c -24.2072,0.43227 -57.9244,-27.665421 -64.8408,-8.645446 V 350.72988 h 256.3433 c 41.0659,4.32272 70.8491,3.42281 94.829,26.80088 52.4243,71.93078 -8.2876,175.15932 -57.8608,211.81335 -18.3791,13.08805 -39.3117,23.84394 -61.3827,28.52997 -16.9162,3.59158 -51.8726,-0.86455 -51.8726,-0.86455 v 248.12422 c 0,0 155.6331,-105.198 209.2197,-170.31523 53.5866,-65.11723 102.7135,-182.05005 102.2235,-267.14419 -0.75475,-43.30875 -12.2311,-100.36103 -42.3627,-134.00437 -30.1316,-33.64334 -83.8584,-46.64591 -119.3071,-52.73721 -44.213,-7.59732 -185.0125,0 -185.0125,0 V 121.62564 h 140.0562 c 20.3902,0 22.0459,23.34269 38.0399,22.47815 10.8068,0.86454 19.4386,-18.61903 28.53,-28.52996 33.5975,-36.62627 95.9644,-114.11985 95.9644,-114.11985 z"
         id="path504-4"
         sodipodi:nodetypes="cccccccscczczsccscac" />
    </g>
  </g>
</svg>
