<?xml version="1.0" encoding="UTF-8" standalone="no"?>
<!-- Created with Inkscape (http://www.inkscape.org/) -->

<svg
   width="114.59508mm"
   height="99.494232mm"
   viewBox="0 0 114.59508 99.494233"
   version="1.1"
   id="svg5"
   xml:space="preserve"
   inkscape:version="1.2.1 (9c6d41e410, 2022-07-14)"
   sodipodi:docname="j5rlogo.svg"
   inkscape:export-filename="j5r.png"
   inkscape:export-xdpi="199.485"
   inkscape:export-ydpi="199.485"
   xmlns:inkscape="http://www.inkscape.org/namespaces/inkscape"
   xmlns:sodipodi="http://sodipodi.sourceforge.net/DTD/sodipodi-0.dtd"
   xmlns:xlink="http://www.w3.org/1999/xlink"
   xmlns="http://www.w3.org/2000/svg"
   xmlns:svg="http://www.w3.org/2000/svg"><sodipodi:namedview
     id="namedview7"
     pagecolor="#ffffff"
     bordercolor="#999999"
     borderopacity="1"
     inkscape:showpageshadow="0"
     inkscape:pageopacity="0"
     inkscape:pagecheckerboard="0"
     inkscape:deskcolor="#d1d1d1"
     inkscape:document-units="mm"
     showgrid="false"
     inkscape:zoom="2"
     inkscape:cx="194.25"
     inkscape:cy="188"
     inkscape:window-width="1920"
     inkscape:window-height="974"
     inkscape:window-x="2293"
     inkscape:window-y="-11"
     inkscape:window-maximized="1"
     inkscape:current-layer="layer1" /><defs
     id="defs2"><linearGradient
       inkscape:collect="always"
       id="linearGradient955"><stop
         style="stop-color:#999999;stop-opacity:0;"
         offset="0"
         id="stop951" /><stop
         style="stop-color:#999999;stop-opacity:0;"
         offset="0.80526441"
         id="stop1083" /><stop
         style="stop-color:#6f7db0;stop-opacity:0.97910446;"
         offset="0.9365775"
         id="stop1980" /><stop
         style="stop-color:#374474;stop-opacity:1;"
         offset="1"
         id="stop953" /></linearGradient><inkscape:path-effect
       effect="fillet_chamfer"
       id="path-effect10777"
       is_visible="true"
       lpeversion="1"
       nodesatellites_param="F,0,0,1,0,5.8208333,0,1 @ F,0,0,1,0,5.8208333,0,1 @ F,0,0,1,0,5.8208333,0,1 @ F,0,0,1,0,5.8208333,0,1 @ F,0,0,1,0,5.8208333,0,1 @ F,0,0,1,0,5.8208333,0,1 @ F,0,0,1,0,5.8208333,0,1 @ F,0,0,1,0,5.8208333,0,1 @ F,0,0,1,0,5.8208333,0,1 @ F,0,0,1,0,5.8208333,0,1 @ F,0,0,1,0,5.8208333,0,1 @ F,0,0,1,0,5.8208333,0,1 @ F,0,0,1,0,5.8208333,0,1 @ F,0,0,1,0,5.8208333,0,1 @ F,0,0,1,0,5.8208333,0,1 @ F,0,0,1,0,5.8208333,0,1 @ F,0,0,1,0,5.8208333,0,1 @ F,0,0,1,0,5.8208333,0,1 @ F,0,0,1,0,5.8208333,0,1 @ F,0,0,1,0,5.8208333,0,1 @ F,0,0,1,0,5.8208333,0,1 @ F,0,0,1,0,5.8208333,0,1 @ F,0,0,1,0,5.8208333,0,1 @ F,0,0,1,0,5.8208333,0,1 @ F,0,0,1,0,5.8208333,0,1 @ F,0,0,1,0,5.8208333,0,1 @ F,0,0,1,0,5.8208333,0,1 @ F,0,0,1,0,5.8208333,0,1 | F,0,0,1,0,5.8208333,0,1 @ F,0,0,1,0,5.8208333,0,1 @ F,0,0,1,0,5.8208333,0,1 @ F,0,0,1,0,5.8208333,0,1 @ F,0,0,1,0,5.8208333,0,1 @ F,0,0,1,0,5.8208333,0,1 @ F,0,0,1,0,5.8208333,0,1 @ F,0,0,1,0,5.8208333,0,1 @ F,0,0,1,0,5.8208333,0,1 @ F,0,0,1,0,5.8208333,0,1 @ F,0,0,1,0,5.8208333,0,1 @ F,0,0,1,0,5.8208333,0,1 @ F,0,0,1,0,5.8208333,0,1 @ F,0,0,1,0,5.8208333,0,1 @ F,0,0,1,0,5.8208333,0,1 @ F,0,0,1,0,5.8208333,0,1 @ F,0,0,1,0,5.8208333,0,1 @ F,0,0,1,0,5.8208333,0,1 | F,0,0,1,0,5.8208333,0,1 @ F,0,0,1,0,5.8208333,0,1 @ F,0,0,1,0,5.8208333,0,1 @ F,0,0,1,0,5.8208333,0,1 @ F,0,0,1,0,5.8208333,0,1 @ F,0,0,1,0,5.8208333,0,1 @ F,0,0,1,0,5.8208333,0,1 @ F,0,0,1,0,5.8208333,0,1 @ F,0,0,1,0,5.8208333,0,1 @ F,0,0,1,0,5.8208333,0,1 @ F,0,0,1,0,5.8208333,0,1 @ F,0,0,1,0,5.8208333,0,1 @ F,0,0,1,0,5.8208333,0,1 @ F,0,0,1,0,5.8208333,0,1 @ F,0,0,1,0,5.8208333,0,1 @ F,0,0,1,0,5.8208333,0,1 @ F,0,0,1,0,5.8208333,0,1 @ F,0,0,1,0,5.8208333,0,1 @ F,0,0,1,0,5.8208333,0,1 @ F,0,0,1,0,5.8208333,0,1 @ F,0,0,1,0,5.8208333,0,1"
       unit="px"
       method="bezier"
       mode="F"
       radius="22"
       chamfer_steps="1"
       flexible="false"
       use_knot_distance="true"
       apply_no_radius="true"
       apply_with_radius="true"
       only_selected="false"
       hide_knots="false" /><linearGradient
       inkscape:collect="always"
       id="linearGradient8298"><stop
         style="stop-color:#08911f;stop-opacity:1;"
         offset="0"
         id="stop8294" /><stop
         style="stop-color:#14b859;stop-opacity:1;"
         offset="0.18076923"
         id="stop8302" /><stop
         style="stop-color:#26d99d;stop-opacity:1;"
         offset="0.37705722"
         id="stop8304" /><stop
         style="stop-color:#26d9c8;stop-opacity:1;"
         offset="0.53285533"
         id="stop8306" /><stop
         style="stop-color:#149db8;stop-opacity:1;"
         offset="0.76897645"
         id="stop8345" /><stop
         style="stop-color:#075992;stop-opacity:1;"
         offset="1"
         id="stop8296" /></linearGradient><linearGradient
       inkscape:collect="always"
       id="linearGradient8208"><stop
         style="stop-color:#e5e5e5;stop-opacity:1;"
         offset="0"
         id="stop8204" /><stop
         style="stop-color:#959595;stop-opacity:1;"
         offset="1"
         id="stop8206" /></linearGradient><linearGradient
       inkscape:collect="always"
       id="linearGradient8200"><stop
         style="stop-color:#ed8d0d;stop-opacity:1;"
         offset="0"
         id="stop8196" /><stop
         style="stop-color:#cd61bb;stop-opacity:0.99319726;"
         offset="1"
         id="stop8198" /></linearGradient><linearGradient
       inkscape:collect="always"
       xlink:href="#linearGradient8200"
       id="linearGradient8202"
       x1="-440.16385"
       y1="50.411678"
       x2="-289.76883"
       y2="186.96101"
       gradientUnits="userSpaceOnUse" /><linearGradient
       inkscape:collect="always"
       xlink:href="#linearGradient8208"
       id="linearGradient8210"
       x1="-447.55817"
       y1="48.917454"
       x2="-279.88535"
       y2="194.28622"
       gradientUnits="userSpaceOnUse" /><filter
       inkscape:collect="always"
       style="color-interpolation-filters:sRGB"
       id="filter8220"
       x="-0.013261491"
       y="-0.015498689"
       width="1.026523"
       height="1.0309974"><feGaussianBlur
         inkscape:collect="always"
         stdDeviation="0.92008942"
         id="feGaussianBlur8222" /></filter><filter
       inkscape:collect="always"
       style="color-interpolation-filters:sRGB"
       id="filter8228"
       x="-0.025046936"
       y="-0.029069477"
       width="1.0500939"
       height="1.058139"><feGaussianBlur
         inkscape:collect="always"
         stdDeviation="1.8038265"
         id="feGaussianBlur8230" /></filter><linearGradient
       inkscape:collect="always"
       xlink:href="#linearGradient8298"
       id="linearGradient8300"
       x1="-431.39139"
       y1="55.865673"
       x2="-271.40942"
       y2="194.84796"
       gradientUnits="userSpaceOnUse" /><linearGradient
       inkscape:collect="always"
       xlink:href="#linearGradient8200"
       id="linearGradient10826"
       gradientUnits="userSpaceOnUse"
       x1="-440.16385"
       y1="50.411678"
       x2="-289.76883"
       y2="186.96101" /><linearGradient
       inkscape:collect="always"
       xlink:href="#linearGradient8200"
       id="linearGradient10828"
       gradientUnits="userSpaceOnUse"
       x1="-440.16385"
       y1="50.411678"
       x2="-289.76883"
       y2="186.96101" /><linearGradient
       inkscape:collect="always"
       xlink:href="#linearGradient8200"
       id="linearGradient10830"
       gradientUnits="userSpaceOnUse"
       x1="-440.16385"
       y1="50.411678"
       x2="-289.76883"
       y2="186.96101" /><radialGradient
       inkscape:collect="always"
       xlink:href="#linearGradient955"
       id="radialGradient957"
       cx="-368.73972"
       cy="118.25653"
       fx="-368.73972"
       fy="118.25653"
       r="52.387501"
       gradientUnits="userSpaceOnUse" /></defs><g
     inkscape:label="Camada 1"
     inkscape:groupmode="layer"
     id="layer1"
     transform="translate(426.03725,-68.50941)"><circle
       style="opacity:0.485058;fill:url(#radialGradient957);fill-opacity:1;stroke-width:0.2473;paint-order:stroke markers fill;stop-color:#000000"
       id="circle372"
       cx="-368.73972"
       cy="118.25653"
       r="52.387501" /><g
       id="g10824"
       transform="matrix(0.378748,0,0,0.378748,-229.08028,73.467105)"><path
         id="path7959"
         style="opacity:0.624366;fill:url(#linearGradient8210);fill-opacity:1;stroke:none;stroke-width:0.155884px;stroke-linecap:butt;stroke-linejoin:miter;stroke-opacity:1;filter:url(#filter8228)"
         d="m -378.50977,43.808594 c -15.04377,0.04769 -30.09061,-0.07336 -45.13242,0.08669 -4.02576,0.417077 -7.58211,2.772029 -10.26291,5.699786 -6.77248,6.331566 -13.61656,12.590781 -20.27849,19.037743 -1.62936,1.914783 -1.21409,5.391865 1.1875,6.476563 2.25594,1.185745 4.86219,0.53593 7.28671,0.711131 5.21794,0.03136 10.44972,-0.09001 15.6586,0.109182 0.77636,0.669119 0.30614,1.822192 0.41222,2.709374 -0.0162,20.443025 0.0681,40.887167 -0.10581,61.329367 -0.22057,7.08747 -0.97177,14.24953 -3.02338,21.08258 -2.00137,6.4617 -5.61324,12.40501 -10.43683,17.1488 -2.74844,2.79645 -5.93766,5.10011 -8.8794,7.67519 -1.58694,1.75229 -1.26043,5.05814 1.01367,6.07227 2.26986,1.1724 4.88099,0.51786 7.31406,0.69156 6.96285,-0.0691 13.94009,0.21455 20.89134,-0.2696 6.64629,-0.90218 12.54115,-5.10108 16.25078,-10.5953 4.79513,-6.81927 7.15797,-14.98389 8.74648,-23.07332 1.15301,-6.02806 1.74114,-12.15561 1.95945,-18.28655 1.65466,0.98948 3.63901,1.13971 5.51912,1.0061 10.24902,0.11379 20.49988,0.20643 30.7488,0.16147 1.78501,0.13526 3.83719,0.21377 5.17691,1.55709 0.79509,1.40824 0.0874,3.06021 -0.34263,4.47109 -1.37234,3.49618 -3.43937,6.61766 -5.23854,9.89876 -5.3515,9.37112 -10.85926,18.6569 -16.09064,28.09389 -1.24186,2.9239 0.97794,6.80157 4.23077,6.91144 2.84885,0.30225 5.71726,0.0285 8.57472,0.12078 4.04617,-0.0281 8.1125,0.17066 12.14251,-0.23873 3.7377,-0.72176 6.82337,-3.45792 8.58353,-6.75658 5.8097,-8.81182 10.77073,-18.19262 14.67006,-28.00265 4.78253,10.18076 9.34233,20.47046 14.24218,30.5957 2.13436,3.29953 6.29249,4.86481 10.11602,4.40942 5.68043,-0.0542 11.37233,0.15263 17.04443,-0.16591 3.14865,-0.60268 5.19324,-4.48219 3.73072,-7.38346 -1.10141,-2.80637 -2.54782,-5.41664 -3.75137,-8.16853 -7.91086,-16.86309 -15.83006,-33.72214 -23.68862,-50.60949 -0.35446,-1.44051 0.90644,-2.57424 1.95107,-3.32946 8.03099,-7.15629 15.13965,-15.67944 19.18948,-25.739987 4.16486,-10.149281 4.48942,-22.009623 0.0497,-32.126866 -3.55108,-8.288999 -9.8422,-15.522093 -17.92851,-19.627902 -1.87511,-0.721716 -4.03926,-0.42674 -5.76562,0.552735 -1.21208,-1.707885 -3.41919,-2.383965 -5.43945,-2.209615 -16.58316,-0.0014 -33.16788,-0.06867 -49.75,0.05336 -1.83249,0.202117 -3.60375,0.819019 -5.2168,1.701172 -1.26714,-1.578401 -3.46384,-1.869531 -5.35938,-1.779297 z m 53.89844,30.486328 c 0.81735,1.772038 2.37186,3.024459 3.5,4.570312 1.93293,3.152256 1.56866,7.121007 0.45052,10.492071 -1.89729,5.917117 -5.69912,11.059095 -10.14772,15.321975 -1.84939,1.76593 -3.95151,3.24006 -5.90436,4.87736 -0.39374,0.42857 -0.73031,0.91552 -0.95313,1.45508 -4.48077,-0.79993 -9.05572,-0.53183 -13.58157,-0.79584 -6.01861,-0.20299 -12.05415,-0.3041 -18.05905,-0.66315 -0.87858,-0.69115 -0.3768,-1.95485 -0.48073,-2.90507 0.005,-10.111071 -0.0409,-20.222537 0.0706,-30.333207 0.53998,-0.856505 1.71262,-0.417917 2.54883,-0.493989 12.75302,-0.0105 25.50827,0.05336 38.25977,-0.08218 1.50281,-0.22001 2.94842,-0.791319 4.20508,-1.642578 0.0306,0.06641 0.0612,0.132813 0.0918,0.199219 z" /><g
         id="g7973"
         style="opacity:1;fill:url(#linearGradient8202);fill-opacity:1;filter:url(#filter8220)"><path
           style="opacity:0.576142;fill:url(#linearGradient10826);fill-opacity:1;stroke:none;stroke-width:0.155884px;stroke-linecap:butt;stroke-linejoin:miter;stroke-opacity:1"
           d="m -366.87812,46.991407 h 49.37606 c 2.19188,0 3.19113,1.597679 2.23189,3.568514 l -9.01225,18.516359 c -0.95924,1.970835 -3.51373,3.568514 -5.70561,3.568514 h -39.00676 c -2.19188,0 -3.96875,1.77687 -3.96875,3.96875 v 32.157126 c 0,2.19188 1.77617,4.01873 3.96718,4.08038 l 25.06506,0.76487 c 2.19101,0.0617 5.77716,0.25056 7.81217,1.04765 5.4437,2.13225 8.48764,7.18331 10.08168,11.77501 0.71833,2.06916 1.1211,5.60602 0.94539,7.78969 -1.55811,19.36325 -15.62484,43.49481 -21.7845,52.05096 -1.28036,1.77849 -4.13922,3.18807 -6.3311,3.18807 h -17.62751 c -2.19188,0 -3.08089,-1.53915 -1.98566,-3.43778 l 16.20902,-28.09921 c 1.09523,-1.89863 2.89682,-4.96655 3.8348,-6.94703 2.74492,-5.79572 3.87749,-12.27403 -7.12418,-12.60459 -2.18983,-0.0658 -5.742,0.0984 -7.9338,0.0795 l -24.51156,-0.22972 c -2.1918,-0.0189 -3.9686,-1.81111 -3.9686,-4.00299 V 76.613544 c 0,-2.19188 1.25188,-5.229729 2.79615,-6.785223 l 19.87598,-20.020441 c 1.54427,-1.555494 4.57302,-2.816473 6.7649,-2.816473 z"
           id="path7930"
           sodipodi:nodetypes="ssssssssccssssssccssccsssss" /><path
           style="opacity:0.576142;fill:url(#linearGradient10828);fill-opacity:1;stroke:none;stroke-width:0.155884px;stroke-linecap:butt;stroke-linejoin:miter;stroke-opacity:1"
           d="m -312.84181,50.559921 -9.01224,18.516359 c -0.95924,1.970836 -0.0641,4.302826 1.53346,5.792179 9.27886,8.650367 0.0627,26.877421 -13.32209,36.227041 -1.79608,1.25461 -1.55372,2.24181 0.4813,3.0389 5.44366,2.13222 7.95836,7.71238 9.55238,12.30403 0.71832,2.06917 1.12111,5.60606 0.94476,7.78967 -0.35876,4.44237 -1.48905,9.13479 -3.08994,13.83215 -0.70702,2.07455 -0.62017,5.33993 0.29804,7.33022 l 14.0587,30.4731 c 0.91821,1.99029 3.43944,3.60373 5.63132,3.60373 h 17.6275 c 2.19188,0 3.21414,-1.60867 2.28328,-3.59307 l -27.20611,-57.99763 c -0.93086,-1.9844 -0.28967,-4.69382 1.37365,-6.12111 36.28818,-31.138896 22.40683,-62.769527 4.15774,-73.047143 -1.90842,-1.074793 -4.35251,-0.119262 -5.31175,1.851574 z"
           id="path4640"
           sodipodi:nodetypes="ssssssssccsscccss" /><path
           style="opacity:0.576142;fill:url(#linearGradient10830);fill-opacity:1;stroke:none;stroke-width:0.155884px;stroke-linecap:butt;stroke-linejoin:miter;stroke-opacity:1"
           d="m -429.36639,49.697816 -21.70944,20.240569 c -1.60318,1.494708 -1.12594,2.706409 1.06594,2.706409 h 19.57756 c 2.19188,0 3.96875,1.77687 3.96875,3.96875 v 57.611916 c 0,2.19188 -0.048,5.74528 -0.16515,7.93398 -1.14237,21.34161 -6.22236,33.09853 -22.17253,44.99846 -1.7567,1.31062 -1.45046,2.3094 0.74142,2.3094 h 17.62751 c 2.19188,0 5.76477,0.0466 7.91529,-0.36034 16.08639,-3.04375 22.19837,-24.88469 23.39313,-46.94746 0.11852,-2.18861 0.16292,-5.74216 0.16292,-7.93404 V 76.613544 c 0,-2.19188 1.25188,-5.229728 2.79615,-6.785223 l 19.87598,-20.020441 c 1.54427,-1.555495 1.01928,-2.816473 -1.1726,-2.816473 h -45.03337 c -2.19188,0 -5.26838,1.211701 -6.87156,2.706409 z"
           id="path7932" /></g><path
         id="path7945"
         style="opacity:1;fill:url(#linearGradient8300);fill-opacity:1;stroke:none;stroke-width:0.155884px;stroke-linecap:butt;stroke-linejoin:miter;stroke-opacity:1"
         d="m -349.94387,50.679471 c -4.30195,-0.0015 -8.60467,-0.01158 -12.90518,0.03774 -3.21402,0.03686 -8.41174,0.973531 -10.61756,3.244155 -1.05938,1.090509 -3.7303,3.84744 -6.00013,6.123935 -2.99199,3.00078 -6.00344,5.983641 -8.93854,9.03769 -2.22618,2.316403 -5.11152,6.715159 -5.05133,9.88312 0.0284,1.496721 0.0308,5.316373 0.0305,8.53113 -0.001,13.644981 -0.007,27.289961 0.0188,40.934921 0.006,3.21475 1.45039,5.78077 3.18822,6.04755 12.3793,0.11611 18.93895,0.12131 25.49715,0.18083 3.21432,0.0292 8.5544,0.0967 11.42931,1.49342 2.41339,1.17251 5.31128,5.47831 5.22783,8.63887 -0.0693,2.62297 -1.85089,7.11649 -3.36089,9.95122 -0.75274,1.41312 -1.56214,2.79854 -2.37701,4.181 -1.63202,2.76876 -4.19075,7.30931 -5.79304,10.0963 l -6.67095,11.6033 c -1.60229,2.78699 -0.29513,5.04892 2.91953,5.07184 1.49458,0.0106 2.98916,0.0171 4.48295,0.002 3.212,-0.0321 8.24042,-1.48513 9.87282,-4.1544 0.23077,-0.37734 1.83786,-2.86958 3.48271,-5.63149 4.65002,-7.80797 8.67055,-15.98598 11.71013,-24.54995 1.07517,-3.02926 2.59263,-8.02376 3.2597,-11.16779 0.0317,-0.14923 0.0627,-0.29861 0.093,-0.44815 0.63852,-3.14757 1.03109,-8.44021 0.21575,-11.53485 -0.29493,-1.1194 -0.69903,-2.20944 -1.20789,-3.24685 -1.40807,-2.87057 -5.38631,-6.80696 -8.51152,-7.30795 -0.1396,-0.0224 -2.84808,-0.30249 -6.05958,-0.39878 -1.25773,-0.0377 -4.88053,-0.19432 -8.09406,-0.28273 -3.88482,-0.10687 -7.77104,-0.19717 -11.65117,-0.38193 -3.20912,-0.15282 -8.70733,-1.04122 -10.41547,-3.66754 -1.65613,-2.54639 -1.34063,-7.92987 -1.32734,-11.14459 0.0284,-6.87377 -0.0394,-13.748908 0.0385,-20.621378 0.0364,-3.213054 0.52576,-8.787529 3.02186,-10.67257 2.3455,-1.771292 7.65714,-1.592276 10.87162,-1.605816 2.66003,-0.01121 7.42244,-0.0046 10.63719,-0.0052 5.6036,-0.0011 11.20723,-0.01006 16.81063,-0.05264 3.21463,-0.02443 7.80744,-1.643191 9.08751,-4.317818 3.08968,-6.369388 3.63885,-7.501603 4.18706,-8.634272 1.40052,-2.893635 -0.0797,-5.243755 -3.29444,-5.24349 -4.05499,3.34e-4 -8.10998,6.7e-4 -12.16498,0.001 -3.21475,2.75e-4 -5.82084,4.83e-4 -5.82085,4.56e-4 z m -39.60531,0.0078 c -4.60624,0.01778 -9.21286,0.0035 -13.81935,0.0012 -3.21459,-0.0016 -8.4266,0.01339 -11.64135,0.0088 -0.7617,-0.0011 -1.52325,-0.0015 -2.28402,1.5e-4 -3.21424,0.0071 -8.0298,-0.0562 -9.90141,1.396318 -5.13533,4.699896 -7.74968,7.082516 -10.09945,9.276426 l -3.83146,3.577321 c -2.34977,2.19391 -1.64856,3.975884 1.56613,3.960822 1.50445,-0.007 3.00886,-0.0086 4.51225,0.01539 3.21358,0.05131 8.67877,1.055848 10.30488,3.736936 0.0104,0.01721 0.0208,0.03446 0.0311,0.05175 1.61525,2.70567 1.12543,8.198746 1.12464,11.413504 -0.004,17.35253 0.0774,34.70615 -0.11184,52.05745 -0.0351,3.2142 -0.17307,8.42587 -0.47343,11.62627 -0.53942,5.7476 -1.55232,11.47082 -3.4406,16.90884 -1.05391,3.03516 -3.33625,7.74643 -5.11144,10.42381 -1.52053,2.29331 -3.24212,4.45387 -5.10783,6.48214 -2.1756,2.36517 -1.5323,4.09516 1.68233,4.12038 2.27493,0.0179 4.54954,0.0246 6.81827,-0.0443 3.21216,-0.0974 8.45964,-0.91498 11.10368,-2.70938 1.05308,-0.71467 2.03263,-1.54795 2.92877,-2.46711 2.23788,-2.29538 4.81961,-6.89927 6.05693,-9.86363 1.57086,-3.76345 2.65251,-7.72765 3.47218,-11.73799 0.64369,-3.14933 1.39881,-8.31088 1.68484,-11.51249 0.75124,-8.40884 0.61646,-16.87539 0.58879,-25.33098 -0.0105,-3.21428 0.0121,-8.42607 0.0111,-11.64082 -0.003,-9.7106 -0.0235,-19.422015 0.0602,-29.131648 0.0277,-3.214485 0.23467,-8.552959 1.82246,-11.316391 0.11535,-0.200747 0.23513,-0.399258 0.35901,-0.595492 1.71124,-2.710714 5.62477,-6.24285 7.89625,-8.517699 1.95882,-1.961735 3.90567,-3.935631 5.85101,-5.909623 2.25641,-2.289633 3.95678,-4.396938 3.76798,-4.322765 z m 77.39773,5.205628 c -3.25763,6.702612 -3.96778,8.171407 -4.67334,9.642405 -1.39028,2.898525 -0.78375,6.793746 0.4477,9.228147 2.5967,6.967135 2.72638,8.65196 2.65158,10.33009 -0.14274,3.20195 -1.75329,8.236493 -3.15095,11.127655 -2.00955,4.156878 -4.76783,7.943858 -7.95699,11.306118 -2.21137,2.33139 -5.00733,4.69428 -4.52902,4.88496 5.14963,5.52061 6.0465,7.05594 6.79956,8.66116 1.36365,2.90674 2.68474,8.01327 2.76671,11.22006 0.0315,1.23151 -0.0167,2.46612 -0.13327,3.69545 -0.30311,3.19721 -1.70117,8.23951 -2.53446,11.34422 -0.56134,2.09143 -0.57239,6.47391 0.85428,9.32023 0.71627,1.42903 2.31493,4.98944 3.65841,7.91001 2.27987,4.95618 4.55915,9.91413 6.87856,14.8475 1.36774,2.90916 4.6518,6.3712 7.4551,6.33631 6.18852,-0.0114 6.55622,-0.0123 6.92391,-0.0132 3.2147,-0.009 4.72267,-2.40226 3.36325,-5.31544 -7.26377,-15.56589 -14.62456,-31.08747 -21.81303,-46.68784 -1.34525,-2.91947 -3.36318,-8.0317 -2.29134,-10.99722 0.0121,-0.0335 0.0244,-0.067 0.0369,-0.10038 1.11034,-2.97224 5.40749,-6.3091 7.68205,-8.58002 4.04997,-4.04348 7.6765,-8.5335 10.5097,-13.49086 1.59425,-2.789528 3.64871,-7.607613 4.46177,-10.715165 0.67563,-2.582315 1.08876,-5.225988 1.1868,-7.878684 0.11856,-3.208042 -0.64453,-8.411668 -1.64421,-11.462982 -0.39412,-1.202938 -1.7301,-4.606428 -3.41962,-7.33687 -1.81545,-2.933967 -4.07691,-5.59401 -6.7071,-7.817502 -2.4512,-2.072179 -4.84075,-3.246204 -4.91954,-3.167502 v 5e-5 z"
         inkscape:path-effect="#path-effect10777"
         inkscape:original-d="m -344.12305,50.669922 c -8.18083,0.03842 -16.36924,-0.06562 -24.54485,0.156589 -2.88903,0.620962 -4.71447,3.162724 -6.70968,5.116269 -5.65936,5.816103 -11.55122,11.416664 -17.00182,17.428231 -1.53618,2.508394 -0.96337,5.560001 -1.04641,8.345395 4e-4,17.525525 -0.0136,35.051074 0.0313,52.576564 0.98186,0.49404 2.12508,0.0655 3.17537,0.22674 10.43824,0.14468 20.88033,0.0904 31.31701,0.25056 3.50361,0.26985 7.26957,1.51726 9.33848,4.53754 2.0414,2.98331 1.78315,6.93658 0.53242,10.17657 -1.84892,5.18818 -5.08669,9.70165 -7.66335,14.53068 -4.15779,7.23196 -8.31558,14.46392 -12.47337,21.69588 5.371,-0.0257 10.75551,0.18084 16.11626,-0.17578 2.24371,-0.58304 3.33894,-2.83009 4.4819,-4.63178 6.99523,-10.91587 12.86176,-22.57812 16.57876,-35.03299 1.12603,-3.87145 2.09544,-7.76238 2.30288,-11.84924 0.36395,-5.01863 -1.48238,-10.22014 -5.17511,-13.68326 -1.4576,-1.41397 -3.31122,-2.41587 -5.33959,-2.67733 -2.67505,-0.37857 -5.38995,-0.29213 -8.08251,-0.45855 -7.75771,-0.30201 -15.53596,-0.31634 -23.27498,-0.92945 -3.80709,-0.81623 -6.31236,-4.8573 -5.98932,-8.63037 0.15958,-10.75205 -0.0834,-21.510235 0.19717,-32.259102 0.44585,-3.805317 4.23398,-6.625285 7.96734,-6.52944 3.54287,0.135974 7.09047,0.03006 10.63634,0.06237 9.48406,0.0022 18.96845,0.0073 28.45195,-0.109375 1.89688,-0.573547 2.50083,-2.659536 3.26702,-4.260432 2.23944,-4.625396 4.49382,-9.243553 6.71345,-13.87824 -7.93554,6.51e-4 -15.87109,0.0013 -23.80664,0.002 z m -39.60547,-0.02539 c -8.48588,0.09679 -16.97382,0.02214 -25.46054,0.05064 -4.63428,0.02893 -9.32503,-0.05261 -13.92422,0.08022 -1.46251,0.01026 -2.91567,0.413163 -4.08203,1.318359 -2.13958,1.50594 -3.82515,3.598615 -5.84481,5.304001 -4.11358,3.840724 -8.22716,7.681447 -12.34074,11.522171 5.38135,0.04364 10.77865,-0.174292 16.14648,0.267578 3.85528,1.005992 6.26964,5.26935 5.65235,9.117578 -0.0342,21.232527 0.12005,42.467281 -0.19113,63.697971 -0.44509,9.59414 -1.83661,19.366 -6.05672,28.09402 -2.91253,5.97612 -7.22492,11.17996 -12.14082,15.61777 6.15269,-0.0273 12.33802,0.26717 18.44517,-0.39716 5.06889,-1.11805 9.18352,-4.98787 11.69137,-9.45041 4.06819,-6.89847 5.86648,-14.83904 7.07932,-22.67584 1.76612,-12.2255 1.16047,-24.60742 1.2682,-36.93245 0.0123,-13.59065 -0.0571,-27.183924 0.12499,-40.772686 0.29034,-4.17622 2.89915,-7.756318 5.87969,-10.512047 4.75424,-4.653569 9.39717,-9.425865 14.07376,-14.150027 0.0713,-0.171358 -0.21431,-0.221338 -0.32032,-0.179688 z m 73.48047,1.539063 c -0.88617,1.091111 -1.15084,2.533625 -1.9034,3.70935 -2.41062,4.957204 -4.8321,9.908625 -7.16691,14.901978 0.40941,1.682852 2.18587,2.475226 2.94127,3.968574 3.1045,4.684099 3.31033,10.80328 1.60967,16.039196 -2.43839,8.196813 -7.8593,15.220457 -14.28618,20.729977 -0.33203,0.3107 -0.98927,0.60841 -0.30887,0.87965 4.57813,3.3995 7.31858,8.72196 8.78251,14.12604 1.28518,4.97834 0.89598,10.23578 -0.36202,15.17683 -0.75849,3.15569 -1.8341,6.24159 -2.399,9.43949 0.006,2.97992 1.91221,5.44693 2.95475,8.12172 3.91214,8.4759 7.78006,16.98448 11.80811,25.39352 1.2437,1.40361 3.28532,1.09819 4.96054,1.07734 4.24818,-0.0137 8.49657,-6.3e-4 12.74453,-0.052 -8.87362,-19.09653 -17.93876,-38.10555 -26.69922,-57.2539 -1.29627,-3.77552 0.50433,-8.08321 3.59766,-10.42188 7.21057,-6.28318 13.5818,-13.80508 17.36328,-22.66406 2.52785,-6.056183 3.70229,-12.711843 2.74414,-19.191407 -0.37821,-2.589201 -1.11318,-5.348419 -2.12622,-7.80951 -2.73963,-6.782563 -7.69107,-12.741056 -14.11206,-16.313536 -0.0475,0.04753 -0.095,0.09505 -0.14258,0.142578 z" /></g></g></svg>
