<svg width="301" height="190" viewBox="0 0 301 190" fill="none" xmlns="http://www.w3.org/2000/svg">
<g opacity="0.3">
<path fill-rule="evenodd" clip-rule="evenodd" d="M1 167.717C5.92795 197.284 78.2912 193.134 134.111 172.26C221.51 199.098 423.523 169.586 193 95.7123C266.343 -36.3044 186.38 -13.402 138.536 61.8443C129.528 58.1036 119.379 54.3885 108 50.7165C9.9497 31.4729 23.791 46.6576 47.1835 72.3206C74.8464 102.668 115.866 147.669 1 167.717ZM138.536 61.8443C121.146 89.1937 108 123.458 108 159.712C114.267 164.77 123.315 168.945 134.111 172.26C197.242 148.652 239.212 103.653 138.536 61.8443Z" fill="#C4C4E4"/>
<path d="M134.111 172.26C78.2912 193.134 5.92795 197.284 1 167.717C115.866 147.669 74.8464 102.668 47.1835 72.3206C23.791 46.6576 9.9497 31.4729 108 50.7165C119.379 54.3885 129.528 58.1036 138.536 61.8443M134.111 172.26C221.51 199.098 423.523 169.586 193 95.7123C266.343 -36.3044 186.38 -13.402 138.536 61.8443M134.111 172.26C123.315 168.945 114.267 164.77 108 159.712C108 123.458 121.146 89.1937 138.536 61.8443M134.111 172.26C197.242 148.652 239.212 103.653 138.536 61.8443" stroke="#454575"/>
</g>
</svg>
