<svg width="40" height="40" viewBox="0 0 40 40" fill="none" xmlns="http://www.w3.org/2000/svg">
<path d="M24.9998 21.6666C24.0781 21.6666 23.3332 22.4133 23.3332 23.3331V30C23.3332 30.9183 22.5865 31.6666 21.6664 31.6666H16.6664V6.66656C16.6664 5.24323 15.7597 3.97156 14.3965 3.49823L13.9031 3.33313H21.6664C22.5865 3.33313 23.3332 4.08142 23.3332 5V10C23.3332 10.9198 24.0781 11.6666 24.9998 11.6666C25.9214 11.6666 26.6663 10.9198 26.6663 10V5C26.6663 2.24335 24.423 0 21.6664 0H3.74996C3.68649 0 3.63339 0.0283814 3.57174 0.0366211C3.49148 0.0299072 3.41488 0 3.3334 0C1.49504 0 0 1.49475 0 3.33313V33.3331C0 34.7565 0.906668 36.0281 2.26988 36.5015L12.3 39.845C12.64 39.95 12.9781 40 13.3333 40C15.1717 40 16.6664 38.5049 16.6664 36.6666V35H21.6664C24.423 35 26.6663 32.7567 26.6663 30V23.3331C26.6663 22.4133 25.9214 21.6666 24.9998 21.6666Z" fill="#151525"/>
<path d="M39.5114 15.4883L32.8446 8.82169C32.3682 8.34501 31.6513 8.20158 31.0282 8.45976C30.4065 8.71824 29.9997 9.32646 29.9997 9.99998V15H23.3332C22.4131 15 21.6664 15.7464 21.6664 16.6665C21.6664 17.5866 22.4131 18.3331 23.3332 18.3331H29.9997V23.3331C29.9997 24.0066 30.4065 24.6148 31.0282 24.8733C31.6513 25.1315 32.3682 24.9881 32.8446 24.5117L39.5114 17.8448C40.1629 17.1933 40.1629 16.1398 39.5114 15.4883Z" fill="#151525"/>
</svg>
