<svg width="50" height="50" viewBox="0 0 50 50" fill="none" xmlns="http://www.w3.org/2000/svg">
<path d="M47.875 11.125C46.5187 8.7125 45.0469 8.26875 42.05 8.1C39.0563 7.89688 31.5281 7.8125 25.0063 7.8125C18.4719 7.8125 10.9406 7.89688 7.95 8.09688C4.95937 8.26875 3.48438 8.70937 2.11562 11.125C0.71875 13.5344 0 17.6844 0 24.9906C0 24.9969 0 25 0 25C0 25.0063 0 25.0094 0 25.0094V25.0156C0 32.2906 0.71875 36.4719 2.11562 38.8563C3.48438 41.2687 4.95625 41.7062 7.94688 41.9094C10.9406 42.0844 18.4719 42.1875 25.0063 42.1875C31.5281 42.1875 39.0562 42.0844 42.0531 41.9125C45.05 41.7094 46.5219 41.2719 47.8781 38.8594C49.2875 36.475 50 32.2937 50 25.0187C50 25.0187 50 25.0094 50 25.0031C50 25.0031 50 24.9969 50 24.9937C50 17.6844 49.2875 13.5344 47.875 11.125ZM18.75 34.375V15.625L34.375 25L18.75 34.375Z" fill="black"/>
</svg>
